<?xml version="1.0" encoding="utf-8"?>
<!-- Generator: Adobe Illustrator 25.2.1, SVG Export Plug-In . SVG Version: 6.00 Build 0)  -->
<svg version="1.1" id="Camada_1" xmlns="http://www.w3.org/2000/svg" xmlns:xlink="http://www.w3.org/1999/xlink" x="0px" y="0px"
	 viewBox="0 0 286.7 429.6" style="enable-background:new 0 0 286.7 429.6;" xml:space="preserve">
<style type="text/css">
	.st0{fill:#5E465D;}
	.st1{fill:#706F6F;}
	.st2{fill:#1D1D1B;}
	.st3{fill:#FFFFFF;}
	.st4{fill:url(#SVGID_1_);}
	.st5{fill:url(#SVGID_2_);}
	.st6{fill:url(#SVGID_3_);}
	.st7{fill:url(#SVGID_4_);}
	.st8{fill:url(#SVGID_5_);}
	.st9{fill:url(#SVGID_6_);}
	.st10{fill:url(#SVGID_7_);}
	.st11{fill:url(#SVGID_8_);}
	.st12{fill:url(#SVGID_9_);}
	.st13{fill:url(#SVGID_10_);}
	.st14{fill:url(#SVGID_11_);}
	.st15{fill:url(#SVGID_12_);}
	.st16{fill:url(#SVGID_13_);}
	.st17{fill:url(#SVGID_14_);}
	.st18{fill:url(#SVGID_15_);}
	.st19{fill:url(#SVGID_16_);}
	.st20{fill:#0F0F1E;}
	.st21{fill:#151524;}
	.st22{fill:none;stroke:#FFFFFF;stroke-width:2;stroke-miterlimit:10;}
	.st23{fill:#6034A6;}
	.st24{fill:#6834A6;}
	.st25{font-family:'Poppins-Bold';}
	.st26{font-size:7.2939px;}
	.st27{fill:#AEAEB3;}
	.st28{font-family:'SegoeUI-Light';}
	.st29{font-size:5.21px;}
	.st30{fill:#EA001B;}
	.st31{font-family:'SegoeUI-Semilight';}
	.st32{fill:#242424;}
	.st33{fill:#4D4D4D;}
	.st34{fill:#909090;}
</style>
<path class="st0" d="M218.3,429.6H76c-18.5,0-33.6-15-33.6-33.6V33.6C42.5,15,57.5,0,76,0h142.3c18.5,0,33.6,15,33.6,33.6V396
	C251.9,414.6,236.8,429.6,218.3,429.6z"/>
<path class="st1" d="M218,1H76.3C58.2,1,43.5,15.7,43.5,33.8v361.9c0,18.1,14.7,32.8,32.8,32.8H218c18.1,0,32.8-14.7,32.8-32.8V33.8
	C250.9,15.7,236.2,1,218,1z M249.9,395.5c0,17.7-14.4,32.1-32.1,32.1H76.6c-17.7,0-32.1-14.4-32.1-32.1V34.1
	C44.5,16.4,58.8,2,76.6,2h141.2c17.7,0,32.1,14.4,32.1,32.1V395.5z"/>
<path class="st2" d="M217.5,426.3H76.9c-17,0-30.9-13.8-30.9-30.9V34.1c0-17,13.8-30.9,30.9-30.9h140.6c17,0,30.9,13.8,30.9,30.9
	v361.3C248.3,412.5,234.5,426.3,217.5,426.3z"/>
<path class="st3" d="M201.3,10.1h16.3c13.3,0,24.1,10.8,24.1,24.1v361.2c0,13.3-10.8,24.1-24.1,24.1H76.7
	c-13.3,0-24.1-10.8-24.1-24.1V34.2c0-13.3,10.8-24.1,24.1-24.1c5.3,0,10.6,0,16.2,0H201.3z"/>
<g>
	<g>
		
			<linearGradient id="SVGID_1_" gradientUnits="userSpaceOnUse" x1="-431.5384" y1="419.2425" x2="-379.7601" y2="419.2425" gradientTransform="matrix(0 1 -1 0 671.7326 541.2998)">
			<stop  offset="0" style="stop-color:#68595F"/>
			<stop  offset="1.850530e-02" style="stop-color:#896E80"/>
			<stop  offset="3.819530e-02" style="stop-color:#5E3B5B"/>
			<stop  offset="8.205520e-02" style="stop-color:#2B1D2A"/>
			<stop  offset="0.1053" style="stop-color:#704A6A"/>
			<stop  offset="0.9049" style="stop-color:#615060"/>
			<stop  offset="0.9391" style="stop-color:#2B1D2A"/>
			<stop  offset="0.9646" style="stop-color:#5E3B5B"/>
			<stop  offset="0.9829" style="stop-color:#845675"/>
			<stop  offset="1" style="stop-color:#5B4A5C"/>
		</linearGradient>
		<rect x="251.9" y="109.8" class="st4" width="1.2" height="51.8"/>
		
			<linearGradient id="SVGID_2_" gradientUnits="userSpaceOnUse" x1="-431.525" y1="418.3231" x2="-379.7577" y2="418.3231" gradientTransform="matrix(0 1 -1 0 671.7326 541.2998)">
			<stop  offset="0" style="stop-color:#676067"/>
			<stop  offset="6.402420e-02" style="stop-color:#654E63"/>
			<stop  offset="0.186" style="stop-color:#786F77"/>
			<stop  offset="0.8064" style="stop-color:#786F77"/>
			<stop  offset="0.9191" style="stop-color:#654E63"/>
			<stop  offset="1" style="stop-color:#676067"/>
		</linearGradient>
		<path class="st5" d="M253.1,161.5v-51.8l0.6,0.7c-0.3,5.5-0.3,44.9,0,50.4L253.1,161.5z"/>
	</g>
	<g>
		
			<linearGradient id="SVGID_3_" gradientUnits="userSpaceOnUse" x1="-442.4374" y1="880.4763" x2="-409.6374" y2="880.4763" gradientTransform="matrix(0 1 1 0 -839.0992 541.2998)">
			<stop  offset="0" style="stop-color:#68595F"/>
			<stop  offset="1.850530e-02" style="stop-color:#896E80"/>
			<stop  offset="3.819530e-02" style="stop-color:#5E3B5B"/>
			<stop  offset="8.205520e-02" style="stop-color:#2D1E2C"/>
			<stop  offset="0.1053" style="stop-color:#704A6A"/>
			<stop  offset="0.9049" style="stop-color:#615060"/>
			<stop  offset="0.9391" style="stop-color:#2D1E2C"/>
			<stop  offset="0.9646" style="stop-color:#5E3B5B"/>
			<stop  offset="0.9829" style="stop-color:#845675"/>
			<stop  offset="1" style="stop-color:#5B4A5C"/>
		</linearGradient>
		<rect x="41" y="98.9" class="st6" width="0.7" height="32.8"/>
		
			<linearGradient id="SVGID_4_" gradientUnits="userSpaceOnUse" x1="-442.4289" y1="879.9512" x2="-409.6359" y2="879.9512" gradientTransform="matrix(0 1 1 0 -839.0992 541.2998)">
			<stop  offset="0" style="stop-color:#676067"/>
			<stop  offset="6.402420e-02" style="stop-color:#654E63"/>
			<stop  offset="0.186" style="stop-color:#786F77"/>
			<stop  offset="0.8064" style="stop-color:#786F77"/>
			<stop  offset="0.9191" style="stop-color:#654E63"/>
			<stop  offset="1" style="stop-color:#676067"/>
		</linearGradient>
		<path class="st7" d="M41,131.7V98.9l-0.4,0.4c0.2,3.5,0.2,28.5,0,31.9L41,131.7z"/>
		<linearGradient id="SVGID_5_" gradientUnits="userSpaceOnUse" x1="42.102" y1="131.6725" x2="42.102" y2="98.8709">
			<stop  offset="0" style="stop-color:#68595F"/>
			<stop  offset="5.306120e-02" style="stop-color:#2D1E2C"/>
			<stop  offset="0.5184" style="stop-color:#5E3B5B"/>
			<stop  offset="0.9646" style="stop-color:#2D1E2C"/>
			<stop  offset="1" style="stop-color:#5B4A5C"/>
		</linearGradient>
		<rect x="41.7" y="98.9" class="st8" width="0.8" height="32.8"/>
	</g>
	<g>
		
			<linearGradient id="SVGID_6_" gradientUnits="userSpaceOnUse" x1="-401.1714" y1="880.4763" x2="-368.3714" y2="880.4763" gradientTransform="matrix(0 1 1 0 -839.0992 541.2998)">
			<stop  offset="0" style="stop-color:#68595F"/>
			<stop  offset="1.850530e-02" style="stop-color:#896E80"/>
			<stop  offset="3.819530e-02" style="stop-color:#5E3B5B"/>
			<stop  offset="8.205520e-02" style="stop-color:#2D1E2C"/>
			<stop  offset="0.1053" style="stop-color:#704A6A"/>
			<stop  offset="0.9049" style="stop-color:#615060"/>
			<stop  offset="0.9391" style="stop-color:#2D1E2C"/>
			<stop  offset="0.9646" style="stop-color:#5E3B5B"/>
			<stop  offset="0.9829" style="stop-color:#845675"/>
			<stop  offset="1" style="stop-color:#5B4A5C"/>
		</linearGradient>
		<rect x="41" y="140.1" class="st9" width="0.7" height="32.8"/>
		
			<linearGradient id="SVGID_7_" gradientUnits="userSpaceOnUse" x1="-401.1629" y1="879.9512" x2="-368.3699" y2="879.9512" gradientTransform="matrix(0 1 1 0 -839.0992 541.2998)">
			<stop  offset="0" style="stop-color:#676067"/>
			<stop  offset="6.402420e-02" style="stop-color:#654E63"/>
			<stop  offset="0.186" style="stop-color:#786F77"/>
			<stop  offset="0.8064" style="stop-color:#786F77"/>
			<stop  offset="0.9191" style="stop-color:#654E63"/>
			<stop  offset="1" style="stop-color:#676067"/>
		</linearGradient>
		<path class="st10" d="M41,172.9v-32.8l-0.4,0.4c0.2,3.5,0.2,28.5,0,31.9L41,172.9z"/>
		<linearGradient id="SVGID_8_" gradientUnits="userSpaceOnUse" x1="42.102" y1="172.9385" x2="42.102" y2="140.1369">
			<stop  offset="0" style="stop-color:#68595F"/>
			<stop  offset="5.306120e-02" style="stop-color:#2D1E2C"/>
			<stop  offset="0.5184" style="stop-color:#5E3B5B"/>
			<stop  offset="0.9646" style="stop-color:#2D1E2C"/>
			<stop  offset="1" style="stop-color:#5B4A5C"/>
		</linearGradient>
		<rect x="41.7" y="140.1" class="st11" width="0.8" height="32.8"/>
	</g>
	<g>
		
			<linearGradient id="SVGID_9_" gradientUnits="userSpaceOnUse" x1="-473.428" y1="880.4763" x2="-456.5925" y2="880.4763" gradientTransform="matrix(0 1 1 0 -839.0992 541.2998)">
			<stop  offset="0" style="stop-color:#68595F"/>
			<stop  offset="1.850530e-02" style="stop-color:#896E80"/>
			<stop  offset="3.819530e-02" style="stop-color:#5E3B5B"/>
			<stop  offset="8.205520e-02" style="stop-color:#2D1E2C"/>
			<stop  offset="0.1053" style="stop-color:#704A6A"/>
			<stop  offset="0.9049" style="stop-color:#615060"/>
			<stop  offset="0.9391" style="stop-color:#2D1E2C"/>
			<stop  offset="0.9646" style="stop-color:#5E3B5B"/>
			<stop  offset="0.9829" style="stop-color:#845675"/>
			<stop  offset="1" style="stop-color:#5B4A5C"/>
		</linearGradient>
		<rect x="41" y="67.9" class="st12" width="0.7" height="16.8"/>
		
			<linearGradient id="SVGID_10_" gradientUnits="userSpaceOnUse" x1="-473.4199" y1="879.9512" x2="-456.591" y2="879.9512" gradientTransform="matrix(0 1 1 0 -839.0992 541.2998)">
			<stop  offset="0" style="stop-color:#676067"/>
			<stop  offset="6.402420e-02" style="stop-color:#654E63"/>
			<stop  offset="0.186" style="stop-color:#786F77"/>
			<stop  offset="0.8064" style="stop-color:#786F77"/>
			<stop  offset="0.9191" style="stop-color:#654E63"/>
			<stop  offset="1" style="stop-color:#676067"/>
		</linearGradient>
		<path class="st13" d="M41,84.7V67.9l-0.4,0.4c0.2,3.3,0.2,12.7,0,16L41,84.7z"/>
		<linearGradient id="SVGID_11_" gradientUnits="userSpaceOnUse" x1="42.102" y1="84.7168" x2="42.102" y2="67.8799">
			<stop  offset="0" style="stop-color:#68595F"/>
			<stop  offset="5.306120e-02" style="stop-color:#2D1E2C"/>
			<stop  offset="0.5184" style="stop-color:#5E3B5B"/>
			<stop  offset="0.9646" style="stop-color:#2D1E2C"/>
			<stop  offset="1" style="stop-color:#5B4A5C"/>
		</linearGradient>
		<rect x="41.7" y="67.9" class="st14" width="0.8" height="16.8"/>
	</g>
</g>
<g>
	<path class="st2" d="M163,30.1h-33.5c-3.8,0-6.8-3.1-6.8-6.8l0,0c0-3.8,3.1-6.8,6.8-6.8H163c3.8,0,6.8,3.1,6.8,6.8l0,0
		C169.8,27,166.8,30.1,163,30.1z"/>
	<g>
		<linearGradient id="SVGID_12_" gradientUnits="userSpaceOnUse" x1="161.1106" y1="26.0278" x2="161.1106" y2="20.1665">
			<stop  offset="0" style="stop-color:#666666"/>
			<stop  offset="1" style="stop-color:#010104"/>
		</linearGradient>
		<circle class="st15" cx="161.1" cy="23.2" r="3"/>
		<image style="overflow:visible;" width="6" height="7" xlink:href="355E2A5F.png"  transform="matrix(1 0 0 1 158 19.6)">
		</image>
		
			<linearGradient id="SVGID_13_" gradientUnits="userSpaceOnUse" x1="151.1511" y1="-364.8278" x2="151.1511" y2="-368.1768" gradientTransform="matrix(-1 0 0 -1 312.2617 -343.1865)">
			<stop  offset="0" style="stop-color:#0B131C"/>
			<stop  offset="1" style="stop-color:#354039"/>
		</linearGradient>
		<circle class="st16" cx="161.1" cy="23.2" r="1.7"/>
		<g id="Camera_1_">
			<linearGradient id="SVGID_14_" gradientUnits="userSpaceOnUse" x1="162.1615" y1="24.2895" x2="160.0564" y2="22.1844">
				<stop  offset="0" style="stop-color:#231F20"/>
				<stop  offset="8.317667e-02" style="stop-color:#222326"/>
				<stop  offset="0.1958" style="stop-color:#1F2C37"/>
				<stop  offset="0.3254" style="stop-color:#1A3D54"/>
				<stop  offset="0.4675" style="stop-color:#13537C"/>
				<stop  offset="0.62" style="stop-color:#0B71AE"/>
				<stop  offset="0.7788" style="stop-color:#0094EC"/>
				<stop  offset="0.7847" style="stop-color:#0095EE"/>
				<stop  offset="0.7998" style="stop-color:#0488D6"/>
				<stop  offset="0.8384" style="stop-color:#0D689F"/>
				<stop  offset="0.8761" style="stop-color:#154E72"/>
				<stop  offset="0.912" style="stop-color:#1B394E"/>
				<stop  offset="0.9455" style="stop-color:#1F2B35"/>
				<stop  offset="0.9758" style="stop-color:#222225"/>
				<stop  offset="1" style="stop-color:#231F20"/>
			</linearGradient>
			<path class="st17" d="M162.6,23.2c0,0.8-0.7,1.5-1.5,1.5c-0.8,0-1.5-0.7-1.5-1.5c0-0.8,0.7-1.5,1.5-1.5
				C161.9,21.7,162.6,22.4,162.6,23.2z"/>
			<radialGradient id="SVGID_15_" cx="161.1098" cy="23.2371" r="1.4876" gradientUnits="userSpaceOnUse">
				<stop  offset="0" style="stop-color:#231F20"/>
				<stop  offset="0.2019" style="stop-color:#175168"/>
				<stop  offset="0.3838" style="stop-color:#0D78A2"/>
				<stop  offset="0.5384" style="stop-color:#0695CB"/>
				<stop  offset="0.6597" style="stop-color:#02A7E5"/>
				<stop  offset="0.7326" style="stop-color:#00ADEE"/>
				<stop  offset="0.7594" style="stop-color:#02A6E4"/>
				<stop  offset="0.8055" style="stop-color:#0693C8"/>
				<stop  offset="0.8651" style="stop-color:#0E749C"/>
				<stop  offset="0.9352" style="stop-color:#184A5F"/>
				<stop  offset="1" style="stop-color:#231F20"/>
			</radialGradient>
			<path class="st18" d="M162.6,23.2c0,0.8-0.7,1.5-1.5,1.5c-0.8,0-1.5-0.7-1.5-1.5c0-0.8,0.7-1.5,1.5-1.5
				C161.9,21.7,162.6,22.4,162.6,23.2z"/>
		</g>
		<radialGradient id="SVGID_16_" cx="161.927" cy="24.0132" r="0.5312" gradientUnits="userSpaceOnUse">
			<stop  offset="0" style="stop-color:#CCCCCC"/>
			<stop  offset="2.412361e-02" style="stop-color:#C4C4C4"/>
			<stop  offset="0.2198" style="stop-color:#898989"/>
			<stop  offset="0.4085" style="stop-color:#585858"/>
			<stop  offset="0.5855" style="stop-color:#323232"/>
			<stop  offset="0.7482" style="stop-color:#161616"/>
			<stop  offset="0.8915" style="stop-color:#060606"/>
			<stop  offset="1" style="stop-color:#000000"/>
		</radialGradient>
		<path class="st19" d="M162.5,24c0-0.3-0.2-0.5-0.5-0.5s-0.5,0.2-0.5,0.5s0.2,0.5,0.5,0.5S162.5,24.3,162.5,24z"/>
	</g>
</g>
<path class="st20" d="M205.2,426.3H86c-22.1,0-40-17.9-40-40v-343c0-22.1,17.9-40,40-40h119.2c22.1,0,40,17.9,40,40v343
	C245.2,408.4,227.3,426.3,205.2,426.3z"/>
<path class="st21" d="M205.2,426.3H86c-22.1,0-40-17.9-40-40v-109c0-22.1,17.9-40,40-40h119.2c22.1,0,40,17.9,40,40v109
	C245.2,408.4,227.3,426.3,205.2,426.3z"/>
<g>
	<g>
		<line class="st22" x1="62" y1="33.6" x2="75.4" y2="33.6"/>
		<line class="st22" x1="62" y1="28.5" x2="70.9" y2="28.5"/>
		<line class="st22" x1="62" y1="23.5" x2="75.4" y2="23.5"/>
	</g>
	<path class="st21" d="M224.2,38.2h-9.6c-2.8,0-5-2.2-5-5v-9.3c0-2.8,2.2-5,5-5h9.6c2.8,0,5,2.2,5,5v9.3
		C229.2,35.9,227,38.2,224.2,38.2z"/>
	<path class="st3" d="M219.4,23c-3.1,0-5.7,2.5-5.7,5.6c0,1.3,0.5,2.6,1.3,3.5c0,0,0,0,0,0c0.6,0.7,1.3,1.2,2.1,1.6c0,0,0,0,0,0
		c0.1,0,0.1,0.1,0.2,0.1c0,0,0.1,0,0.1,0c0.1,0,0.1,0,0.2,0.1c0,0,0.1,0,0.1,0c0.1,0,0.1,0,0.2,0c0,0,0.1,0,0.1,0c0,0,0.1,0,0.1,0
		c0.1,0,0.1,0,0.2,0c0,0,0.1,0,0.1,0c0.1,0,0.1,0,0.2,0c0,0,0.1,0,0.1,0c0.1,0,0.1,0,0.2,0c0,0,0.1,0,0.1,0c0.1,0,0.2,0,0.3,0
		c0.1,0,0.2,0,0.3,0c0,0,0.1,0,0.1,0c0.1,0,0.1,0,0.2,0c0,0,0.1,0,0.1,0c0.1,0,0.1,0,0.2,0c0,0,0.1,0,0.1,0c0.1,0,0.1,0,0.2,0
		c0,0,0.1,0,0.1,0c0,0,0.1,0,0.1,0c0.1,0,0.1,0,0.2,0c0,0,0.1,0,0.1,0c0.1,0,0.1,0,0.2-0.1c0,0,0.1,0,0.1,0c0.1,0,0.1-0.1,0.2-0.1
		c0,0,0,0,0,0c0.8-0.3,1.6-0.9,2.1-1.6c0,0,0,0,0,0c0.8-1,1.3-2.2,1.3-3.5C225.1,25.5,222.6,23,219.4,23z M220.6,28.8
		c-0.1,0-0.2,0.1-0.2,0.1c0,0,0,0,0,0c-0.5,0.2-1.2,0.2-1.7,0c0,0,0,0,0,0c-0.1,0-0.2-0.1-0.2-0.1c-0.6-0.4-0.9-1-0.9-1.7
		c0-1.1,0.9-2,2.1-2c1.1,0,2.1,0.9,2.1,2C221.5,27.8,221.1,28.4,220.6,28.8z M218.2,29.2C218.2,29.2,218.3,29.2,218.2,29.2
		c0.1,0.1,0.2,0.1,0.2,0.1c0,0,0.1,0,0.1,0.1c0,0,0,0,0,0c0.3,0.1,0.5,0.1,0.8,0.1c0.3,0,0.6-0.1,0.8-0.1c0,0,0,0,0,0
		c0,0,0.1,0,0.1-0.1c0.1,0,0.1-0.1,0.2-0.1c0,0,0,0,0,0c0,0,0.1,0,0.1,0c1.3,0.4,2.4,1.5,2.7,2.8c-0.5,0.5-1.1,1-1.7,1.3
		c0,0,0,0,0,0c-0.1,0-0.1,0.1-0.2,0.1c0,0,0,0,0,0c-0.1,0-0.1,0-0.2,0.1c0,0-0.1,0-0.1,0c-0.1,0-0.1,0-0.2,0.1c0,0-0.1,0-0.1,0
		c0,0-0.1,0-0.1,0c0,0-0.1,0-0.1,0c0,0-0.1,0-0.1,0c0,0-0.1,0-0.1,0c0,0-0.1,0-0.1,0c-0.1,0-0.1,0-0.2,0c0,0-0.1,0-0.1,0
		c-0.1,0-0.1,0-0.2,0c0,0-0.1,0-0.1,0c-0.1,0-0.2,0-0.3,0c-0.1,0-0.2,0-0.3,0c0,0-0.1,0-0.1,0c-0.1,0-0.1,0-0.2,0c0,0-0.1,0-0.1,0
		c-0.1,0-0.1,0-0.2,0c0,0-0.1,0-0.1,0c0,0-0.1,0-0.1,0c0,0-0.1,0-0.1,0c0,0-0.1,0-0.1,0c0,0-0.1,0-0.1,0c0,0-0.1,0-0.1,0
		c-0.1,0-0.1,0-0.2-0.1c0,0-0.1,0-0.1,0c-0.1,0-0.1,0-0.2-0.1c0,0,0,0,0,0c-0.1,0-0.1-0.1-0.2-0.1c0,0,0,0,0,0
		c-0.7-0.3-1.2-0.8-1.7-1.3C215.8,30.6,216.8,29.5,218.2,29.2C218.2,29.1,218.2,29.1,218.2,29.2z M223.7,31.6
		c-0.4-1.2-1.4-2.2-2.7-2.7c0.5-0.4,0.8-1.1,0.8-1.8c0-1.3-1.1-2.4-2.5-2.4c-1.4,0-2.5,1.1-2.5,2.4c0,0.7,0.3,1.3,0.8,1.8
		c-1.2,0.5-2.2,1.5-2.7,2.7c-0.6-0.9-1-1.9-1-3c0-2.9,2.4-5.2,5.3-5.2c2.9,0,5.3,2.3,5.3,5.2C224.7,29.7,224.4,30.7,223.7,31.6z"/>
</g>
<g>
	<path class="st23" d="M182.7,218.5h-74.2c-6.9,0-12.5-5.6-12.5-12.5v-1.2c0-6.9,5.6-12.5,12.5-12.5h74.2c6.9,0,12.5,5.6,12.5,12.5
		v1.2C195.2,213,189.6,218.5,182.7,218.5z"/>
	<path class="st20" d="M134.9,216.7h-26.2c-5.9,0-10.7-4.8-10.7-10.7v-1c0-5.9,4.8-10.7,10.7-10.7h26.2c5.9,0,10.7,4.8,10.7,10.7v1
		C145.6,211.9,140.8,216.7,134.9,216.7z"/>
	<g>
		<g>
			<g>
				<path class="st3" d="M111.3,208.9v-6.2h1.7c2.2,0,3.3,1,3.3,3c0,1-0.3,1.7-0.9,2.3c-0.6,0.6-1.4,0.9-2.5,0.9H111.3z M112,203.3
					v4.9h0.9c0.8,0,1.5-0.2,1.9-0.7c0.5-0.4,0.7-1.1,0.7-1.9c0-1.6-0.9-2.4-2.6-2.4H112z"/>
				<path class="st3" d="M121.4,206.8h-3.2c0,0.5,0.1,0.9,0.4,1.1c0.3,0.3,0.6,0.4,1.1,0.4c0.5,0,1-0.2,1.4-0.5v0.7
					c-0.4,0.3-0.9,0.4-1.6,0.4c-0.6,0-1.1-0.2-1.5-0.6c-0.4-0.4-0.5-1-0.5-1.7c0-0.7,0.2-1.3,0.6-1.7s0.9-0.7,1.5-0.7s1,0.2,1.4,0.6
					c0.3,0.4,0.5,0.9,0.5,1.6V206.8z M120.7,206.2c0-0.4-0.1-0.7-0.3-1s-0.5-0.3-0.8-0.3c-0.3,0-0.6,0.1-0.9,0.4
					c-0.2,0.2-0.4,0.6-0.4,0.9H120.7z"/>
				<path class="st3" d="M123.5,208.2L123.5,208.2l0,0.6h-0.7v-6.6h0.7v2.9h0c0.4-0.6,0.9-0.9,1.6-0.9c0.6,0,1,0.2,1.4,0.6
					s0.5,0.9,0.5,1.6c0,0.7-0.2,1.3-0.6,1.8s-0.9,0.7-1.5,0.7C124.3,209,123.8,208.7,123.5,208.2z M123.5,206.4v0.6
					c0,0.4,0.1,0.7,0.4,0.9c0.2,0.3,0.6,0.4,0.9,0.4c0.4,0,0.8-0.2,1-0.5c0.2-0.3,0.4-0.8,0.4-1.4c0-0.5-0.1-0.9-0.3-1.2
					c-0.2-0.3-0.5-0.4-0.9-0.4c-0.4,0-0.8,0.1-1,0.4C123.6,205.7,123.5,206,123.5,206.4z"/>
				<path class="st3" d="M128.7,203.3c-0.1,0-0.2,0-0.3-0.1c-0.1-0.1-0.1-0.2-0.1-0.3s0-0.2,0.1-0.3c0.1-0.1,0.2-0.1,0.3-0.1
					c0.1,0,0.2,0,0.3,0.1c0.1,0.1,0.1,0.2,0.1,0.3c0,0.1,0,0.2-0.1,0.3C129,203.3,128.9,203.3,128.7,203.3z M129.1,208.9h-0.7v-4.4
					h0.7V208.9z"/>
				<path class="st3" d="M132.9,208.8c-0.2,0.1-0.4,0.1-0.7,0.1c-0.8,0-1.2-0.4-1.2-1.3V205h-0.8v-0.6h0.8v-1.1l0.7-0.2v1.3h1.1v0.6
					h-1.1v2.5c0,0.3,0.1,0.5,0.2,0.6s0.3,0.2,0.5,0.2c0.2,0,0.3,0,0.5-0.1V208.8z"/>
			</g>
		</g>
	</g>
	<g>
		<g>
			<g>
				<path class="st3" d="M162,208.6c-0.5,0.2-1,0.4-1.7,0.4c-0.9,0-1.6-0.3-2.2-0.9s-0.8-1.3-0.8-2.2c0-1,0.3-1.8,0.9-2.4
					c0.6-0.6,1.4-0.9,2.3-0.9c0.6,0,1.1,0.1,1.5,0.3v0.8c-0.5-0.2-1-0.4-1.5-0.4c-0.7,0-1.3,0.2-1.8,0.7c-0.5,0.5-0.7,1.1-0.7,1.9
					c0,0.8,0.2,1.4,0.6,1.8c0.4,0.4,1,0.7,1.7,0.7c0.6,0,1.2-0.1,1.6-0.4V208.6z"/>
				<path class="st3" d="M165.9,205.2c-0.1-0.1-0.3-0.1-0.5-0.1c-0.3,0-0.6,0.1-0.8,0.4c-0.2,0.3-0.3,0.7-0.3,1.2v2.3h-0.7v-4.4h0.7
					v0.9h0c0.1-0.3,0.3-0.6,0.5-0.7c0.2-0.2,0.4-0.3,0.7-0.3c0.2,0,0.3,0,0.4,0.1V205.2z"/>
				<path class="st3" d="M170.5,206.8h-3.2c0,0.5,0.1,0.9,0.4,1.1c0.3,0.3,0.6,0.4,1.1,0.4c0.5,0,1-0.2,1.4-0.5v0.7
					c-0.4,0.3-0.9,0.4-1.6,0.4c-0.6,0-1.1-0.2-1.5-0.6s-0.5-1-0.5-1.7c0-0.7,0.2-1.3,0.6-1.7s0.9-0.7,1.5-0.7s1,0.2,1.4,0.6
					c0.3,0.4,0.5,0.9,0.5,1.6V206.8z M169.8,206.2c0-0.4-0.1-0.7-0.3-1s-0.5-0.3-0.8-0.3c-0.3,0-0.6,0.1-0.9,0.4
					c-0.2,0.2-0.4,0.6-0.4,0.9H169.8z"/>
				<path class="st3" d="M175.8,208.9H175v-0.8h0c-0.3,0.6-0.9,0.9-1.6,0.9c-0.6,0-1-0.2-1.4-0.6c-0.3-0.4-0.5-0.9-0.5-1.6
					c0-0.7,0.2-1.3,0.6-1.8s0.9-0.7,1.5-0.7c0.6,0,1.1,0.2,1.4,0.7h0v-2.7h0.7V208.9z M175,206.9v-0.7c0-0.4-0.1-0.7-0.4-0.9
					c-0.2-0.2-0.5-0.4-0.9-0.4c-0.4,0-0.8,0.2-1,0.5c-0.3,0.3-0.4,0.8-0.4,1.3c0,0.5,0.1,0.9,0.4,1.2c0.2,0.3,0.6,0.4,1,0.4
					c0.4,0,0.7-0.1,1-0.4C174.9,207.7,175,207.3,175,206.9z"/>
				<path class="st3" d="M177.9,203.3c-0.1,0-0.2,0-0.3-0.1s-0.1-0.2-0.1-0.3s0-0.2,0.1-0.3c0.1-0.1,0.2-0.1,0.3-0.1
					c0.1,0,0.2,0,0.3,0.1c0.1,0.1,0.1,0.2,0.1,0.3c0,0.1,0,0.2-0.1,0.3S178,203.3,177.9,203.3z M178.2,208.9h-0.7v-4.4h0.7V208.9z"
					/>
				<path class="st3" d="M182,208.8c-0.2,0.1-0.4,0.1-0.7,0.1c-0.8,0-1.2-0.4-1.2-1.3V205h-0.8v-0.6h0.8v-1.1l0.7-0.2v1.3h1.1v0.6
					h-1.1v2.5c0,0.3,0.1,0.5,0.2,0.6s0.3,0.2,0.5,0.2c0.2,0,0.3,0,0.5-0.1V208.8z"/>
			</g>
		</g>
	</g>
</g>
<g>
	<path class="st24" d="M76.6,272.2H67c-2.8,0-5-2.2-5-5V258c0-2.8,2.2-5,5-5h9.6c2.8,0,5,2.2,5,5v9.3
		C81.6,270,79.3,272.2,76.6,272.2z"/>
	<g>
		<path class="st3" d="M71.8,266.3c-1.5,0-2.6-0.8-2.6-2.1h1.3c0.1,0.6,0.5,1.1,1.3,1.1c0.9,0,1.3-0.4,1.3-1.1
			c0-1.8-3.9-0.6-3.9-3.3c0-1.3,1-2.1,2.5-2.1c1.4,0,2.4,0.7,2.5,2h-1.3c0-0.5-0.5-0.9-1.2-1c-0.7,0-1.2,0.3-1.2,1
			c0,1.6,3.9,0.6,3.9,3.3C74.4,265.2,73.4,266.3,71.8,266.3z"/>
	</g>
	<g>
		<g>
			<text transform="matrix(1.0194 0 0 1 89.5631 261.3521)" class="st3 st25 st26">Shoping Mart</text>
		</g>
		<text transform="matrix(1.0194 0 0 1 89.5631 269.6968)" class="st27 st28 st29">Grocery Shoping</text>
	</g>
	<text transform="matrix(1.0194 0 0 1 209.7223 266.2867)" class="st30 st31 st26">-$250</text>
</g>
<g>
	<path class="st24" d="M76.6,306.7H67c-2.8,0-5-2.2-5-5v-9.3c0-2.8,2.2-5,5-5h9.6c2.8,0,5,2.2,5,5v9.3
		C81.6,304.4,79.3,306.7,76.6,306.7z"/>
	<g>
		<path class="st3" d="M71.8,300.7c-1.5,0-2.6-0.8-2.6-2.1h1.3c0.1,0.6,0.5,1.1,1.3,1.1c0.9,0,1.3-0.4,1.3-1.1
			c0-1.8-3.9-0.6-3.9-3.3c0-1.3,1-2.1,2.5-2.1c1.4,0,2.4,0.7,2.5,2h-1.3c0-0.5-0.5-0.9-1.2-1c-0.7,0-1.2,0.3-1.2,1
			c0,1.6,3.9,0.6,3.9,3.3C74.4,299.7,73.4,300.7,71.8,300.7z"/>
	</g>
	<g>
		<g>
			<text transform="matrix(1.0194 0 0 1 89.5631 295.814)" class="st3 st25 st26">Shoping Mart</text>
		</g>
		<text transform="matrix(1.0194 0 0 1 89.5631 304.1587)" class="st27 st28 st29">Grocery Shoping</text>
	</g>
	<text transform="matrix(1.0194 0 0 1 209.7223 300.7495)" class="st30 st31 st26">-$250</text>
</g>
<g>
	<path class="st24" d="M76.6,341.1H67c-2.8,0-5-2.2-5-5v-9.3c0-2.8,2.2-5,5-5h9.6c2.8,0,5,2.2,5,5v9.3
		C81.6,338.9,79.3,341.1,76.6,341.1z"/>
	<g>
		<path class="st3" d="M71.8,335.2c-1.5,0-2.6-0.8-2.6-2.1h1.3c0.1,0.6,0.5,1.1,1.3,1.1c0.9,0,1.3-0.4,1.3-1.1
			c0-1.8-3.9-0.6-3.9-3.3c0-1.3,1-2.1,2.5-2.1c1.4,0,2.4,0.7,2.5,2h-1.3c0-0.5-0.5-0.9-1.2-1c-0.7,0-1.2,0.3-1.2,1
			c0,1.6,3.9,0.6,3.9,3.3C74.4,334.2,73.4,335.2,71.8,335.2z"/>
	</g>
	<g>
		<g>
			<text transform="matrix(1.0194 0 0 1 89.5631 330.2769)" class="st3 st25 st26">Shoping Mart</text>
		</g>
		<text transform="matrix(1.0194 0 0 1 89.5631 338.6226)" class="st27 st28 st29">Grocery Shoping</text>
	</g>
	<text transform="matrix(1.0194 0 0 1 209.7223 335.2105)" class="st30 st31 st26">-$250</text>
</g>
<g>
	<path class="st24" d="M76.6,375.6H67c-2.8,0-5-2.2-5-5v-9.3c0-2.8,2.2-5,5-5h9.6c2.8,0,5,2.2,5,5v9.3
		C81.6,373.4,79.3,375.6,76.6,375.6z"/>
	<g>
		<path class="st3" d="M71.8,369.7c-1.5,0-2.6-0.8-2.6-2.1h1.3c0.1,0.6,0.5,1.1,1.3,1.1c0.9,0,1.3-0.4,1.3-1.1
			c0-1.8-3.9-0.6-3.9-3.3c0-1.3,1-2.1,2.5-2.1c1.4,0,2.4,0.7,2.5,2h-1.3c0-0.5-0.5-0.9-1.2-1c-0.7,0-1.2,0.3-1.2,1
			c0,1.6,3.9,0.6,3.9,3.3C74.4,368.6,73.4,369.7,71.8,369.7z"/>
	</g>
	<g>
		<g>
			<text transform="matrix(1.0194 0 0 1 89.5631 364.7378)" class="st3 st25 st26">Shoping Mart</text>
		</g>
		<text transform="matrix(1.0194 0 0 1 89.5631 373.0855)" class="st27 st28 st29">Grocery Shoping</text>
	</g>
	<text transform="matrix(1.0194 0 0 1 209.7223 369.6743)" class="st30 st31 st26">-$250</text>
</g>
<g>
	<path class="st24" d="M76.6,410.1H67c-2.8,0-5-2.2-5-5v-9.3c0-2.8,2.2-5,5-5h9.6c2.8,0,5,2.2,5,5v9.3
		C81.6,407.8,79.3,410.1,76.6,410.1z"/>
	<g>
		<path class="st3" d="M71.8,404.1c-1.5,0-2.6-0.8-2.6-2.1h1.3c0.1,0.6,0.5,1.1,1.3,1.1c0.9,0,1.3-0.4,1.3-1.1
			c0-1.8-3.9-0.6-3.9-3.3c0-1.3,1-2.1,2.5-2.1c1.4,0,2.4,0.7,2.5,2h-1.3c0-0.5-0.5-0.9-1.2-1c-0.7,0-1.2,0.3-1.2,1
			c0,1.6,3.9,0.6,3.9,3.3C74.4,403.1,73.4,404.1,71.8,404.1z"/>
	</g>
	<g>
		<g>
			<text transform="matrix(1.0194 0 0 1 89.5631 399.2017)" class="st3 st25 st26">Shoping Mart</text>
		</g>
		<text transform="matrix(1.0194 0 0 1 89.5631 407.5474)" class="st27 st28 st29">Grocery Shoping</text>
	</g>
	<text transform="matrix(1.0194 0 0 1 209.7223 404.1372)" class="st30 st31 st26">-$250</text>
</g>
<g>
	<g>
		<path class="st27" d="M129.8,50h-1.2v-0.4h2.9V50h-1.2v3.2h-0.5V50z"/>
		<path class="st27" d="M134.4,51.9c0,0.8-0.4,1.4-1.3,1.4c-0.8,0-1.2-0.6-1.2-1.4c0-0.8,0.5-1.4,1.3-1.4
			C133.9,50.5,134.4,51,134.4,51.9z M132.4,51.9c0,0.6,0.3,1,0.8,1c0.5,0,0.8-0.4,0.8-1c0-0.6-0.3-1-0.8-1
			C132.7,50.9,132.4,51.3,132.4,51.9z"/>
		<path class="st27" d="M134.8,50.6h0.5v-0.8h0.5v0.8h0.6v0.4h-0.6v1.5c0,0.3,0.1,0.4,0.3,0.4c0.1,0,0.2,0,0.2,0v0.3
			c-0.1,0-0.3,0-0.4,0c-0.4,0-0.6-0.2-0.6-0.7v-1.7h-0.5V50.6z"/>
		<path class="st27" d="M139,52.6c0,0.2,0,0.5,0,0.6h-0.4c0-0.1,0-0.2,0-0.3c-0.1,0.2-0.3,0.4-0.8,0.4c-0.6,0-0.9-0.4-0.9-0.8
			c0-0.6,0.5-0.9,1.3-0.9c0.2,0,0.4,0,0.5,0v-0.2c0-0.2-0.1-0.5-0.6-0.5c-0.5,0-0.5,0.2-0.6,0.4H137c0-0.4,0.3-0.8,1-0.8
			c0.7,0,1,0.3,1,0.9V52.6z M138.6,51.9c-0.1,0-0.3,0-0.4,0c-0.5,0-0.8,0.1-0.8,0.5c0,0.3,0.2,0.5,0.5,0.5
			C138.5,52.9,138.6,52.5,138.6,51.9L138.6,51.9z"/>
		<path class="st27" d="M140,53.2v-3.8h0.5v3.8H140z"/>
		<path class="st27" d="M143,49.6h1.4c0.8,0,1.1,0.4,1.1,0.9c0,0.4-0.2,0.7-0.5,0.8c0.3,0.1,0.7,0.3,0.7,0.9c0,0.7-0.5,1.1-1.2,1.1
			H143V49.6z M144.3,51.1c0.5,0,0.7-0.2,0.7-0.6c0-0.3-0.2-0.5-0.7-0.5h-0.9v1.1H144.3z M143.5,52.8h0.9c0.5,0,0.8-0.2,0.8-0.7
			c0-0.4-0.3-0.7-0.9-0.7h-0.8V52.8z"/>
		<path class="st27" d="M148.5,52.6c0,0.2,0,0.5,0,0.6h-0.4c0-0.1,0-0.2,0-0.3c-0.1,0.2-0.3,0.4-0.8,0.4c-0.6,0-0.9-0.4-0.9-0.8
			c0-0.6,0.5-0.9,1.3-0.9c0.2,0,0.4,0,0.5,0v-0.2c0-0.2-0.1-0.5-0.6-0.5c-0.5,0-0.5,0.2-0.6,0.4h-0.5c0-0.4,0.3-0.8,1-0.8
			c0.7,0,1,0.3,1,0.9V52.6z M148.1,51.9c-0.1,0-0.3,0-0.4,0c-0.5,0-0.8,0.1-0.8,0.5c0,0.3,0.2,0.5,0.5,0.5
			C148,52.9,148.1,52.5,148.1,51.9L148.1,51.9z"/>
		<path class="st27" d="M149.5,53.2v-3.8h0.5v3.8H149.5z"/>
		<path class="st27" d="M152.9,52.6c0,0.2,0,0.5,0,0.6h-0.4c0-0.1,0-0.2,0-0.3c-0.1,0.2-0.3,0.4-0.8,0.4c-0.6,0-0.9-0.4-0.9-0.8
			c0-0.6,0.5-0.9,1.3-0.9c0.2,0,0.4,0,0.5,0v-0.2c0-0.2-0.1-0.5-0.6-0.5c-0.4,0-0.5,0.2-0.6,0.4h-0.5c0-0.4,0.3-0.8,1-0.8
			c0.7,0,1,0.3,1,0.9V52.6z M152.5,51.9c-0.1,0-0.3,0-0.4,0c-0.5,0-0.8,0.1-0.8,0.5c0,0.3,0.2,0.5,0.5,0.5
			C152.4,52.9,152.5,52.5,152.5,51.9L152.5,51.9z"/>
		<path class="st27" d="M153.9,51.2c0-0.2,0-0.5,0-0.7h0.5c0,0.1,0,0.4,0,0.4c0.1-0.2,0.3-0.5,0.8-0.5c0.5,0,0.9,0.3,0.9,1v1.7h-0.5
			v-1.6c0-0.4-0.2-0.7-0.6-0.7c-0.5,0-0.7,0.4-0.7,0.9v1.4h-0.5V51.2z"/>
		<path class="st27" d="M159.2,52.4c-0.1,0.5-0.4,0.9-1.1,0.9c-0.7,0-1.2-0.5-1.2-1.4c0-0.7,0.4-1.4,1.2-1.4c0.8,0,1,0.5,1.1,0.9
			h-0.5c-0.1-0.3-0.2-0.5-0.6-0.5c-0.5,0-0.7,0.4-0.7,1c0,0.6,0.3,1,0.7,1c0.3,0,0.5-0.2,0.6-0.5H159.2z"/>
		<path class="st27" d="M160.2,52c0,0.5,0.3,0.9,0.7,0.9c0.4,0,0.6-0.2,0.7-0.4h0.5c-0.1,0.3-0.4,0.8-1.1,0.8
			c-0.8,0-1.2-0.7-1.2-1.4c0-0.8,0.4-1.4,1.2-1.4c0.9,0,1.2,0.7,1.2,1.2c0,0.1,0,0.1,0,0.2H160.2z M161.6,51.6
			c0-0.4-0.2-0.8-0.7-0.8c-0.5,0-0.7,0.3-0.7,0.8H161.6z"/>
		<path class="st3" d="M120.2,65.8c0.2,0.8,0.8,1.3,1.6,1.3c1,0,1.6-0.4,1.6-1.2c0-0.7-0.3-1.1-1.7-1.5c-1.7-0.5-2.4-1-2.4-2.2
			c0-1.2,1-2,2.4-2c1.9,0,2.5,1.1,2.5,1.9h-1c-0.2-0.6-0.5-1.1-1.6-1.1c-1,0-1.4,0.5-1.4,1.1c0,0.7,0.4,1,1.7,1.4
			c1.9,0.5,2.4,1.3,2.4,2.3c0,1.4-1,2.1-2.7,2.1c-1.6,0-2.5-0.9-2.6-2H120.2z M121.5,68.9v-9.5h0.7v9.5H121.5z"/>
		<path class="st3" d="M129.3,62c0.1-0.9,0.8-1.9,2.4-1.9c1.6,0,2.3,1,2.3,2c0,0.9-0.6,1.4-1,1.6v0c0.7,0.2,1.4,0.8,1.4,1.9
			c0,1.2-0.8,2.4-2.7,2.4c-1.8,0-2.5-1.1-2.6-2.1h1c0.2,0.7,0.7,1.3,1.7,1.3c1.1,0,1.6-0.7,1.6-1.5c0-1-0.6-1.5-1.7-1.5h-0.6v-0.8
			h0.5c1,0,1.4-0.4,1.4-1.2c0-0.7-0.5-1.1-1.3-1.1c-0.9,0-1.3,0.5-1.4,1.1H129.3z"/>
		<path class="st3" d="M135.4,69.1c0.6-1.3,0.8-2.3,0.8-3h1c-0.1,1-0.5,2.2-1,3H135.4z"/>
		<path class="st3" d="M138.7,65.6c0-1.1,0.7-1.7,1.4-1.9c-0.7-0.3-1.1-0.8-1.1-1.6c0-1.2,0.8-2,2.4-2c1.4,0,2.3,0.8,2.3,2
			c0,0.8-0.4,1.3-1.1,1.6c0.7,0.2,1.4,0.9,1.4,1.9c0,1.4-1.1,2.3-2.7,2.3C139.8,67.9,138.7,67,138.7,65.6z M143,65.6
			c0-1-0.6-1.5-1.6-1.5c-1.1,0-1.6,0.6-1.6,1.5c0,0.8,0.6,1.5,1.6,1.5C142.3,67.1,143,66.6,143,65.6z M140,62.1
			c0,0.6,0.4,1.2,1.4,1.2c0.9,0,1.3-0.4,1.3-1.1c0-0.7-0.4-1.2-1.4-1.2C140.4,60.9,140,61.4,140,62.1z"/>
		<path class="st3" d="M150.4,61.1h-3.2c-0.1,0.6-0.3,1.7-0.3,2.2c0.3-0.4,0.8-0.6,1.6-0.6c1.4,0,2.3,1,2.3,2.5
			c0,1.5-0.8,2.8-2.7,2.8c-1.4,0-2.4-0.7-2.6-2h1c0.2,0.7,0.7,1.2,1.6,1.2c1,0,1.6-0.7,1.6-1.8c0-1-0.4-1.7-1.5-1.7
			c-0.9,0-1.3,0.4-1.6,1l-1-0.2c0.2-1,0.5-3.1,0.6-4.1h4.2L150.4,61.1z"/>
		<path class="st3" d="M153.7,67.8v-6.3c-0.4,0.3-1.2,0.6-1.6,0.7v-0.8c0.6-0.2,1.3-0.6,1.9-1.1h0.8v7.6H153.7z"/>
		<path class="st3" d="M156.9,67.8v-1.7h1.1v1.7H156.9z"/>
		<path class="st3" d="M164.4,61.1h-3.2c-0.1,0.6-0.3,1.7-0.3,2.2c0.3-0.4,0.8-0.6,1.6-0.6c1.4,0,2.3,1,2.3,2.5
			c0,1.5-0.8,2.8-2.7,2.8c-1.4,0-2.4-0.7-2.6-2h1c0.2,0.7,0.7,1.2,1.6,1.2c1,0,1.6-0.7,1.6-1.8c0-1-0.4-1.7-1.5-1.7
			c-0.9,0-1.3,0.4-1.6,1l-1-0.2c0.2-1,0.5-3.1,0.6-4.1h4.2L164.4,61.1z"/>
		<path class="st3" d="M167.4,66.1c0.2,0.6,0.6,0.9,1.4,0.9c1.5,0,1.6-2,1.7-2.9c-0.4,0.6-1,0.9-1.8,0.9c-1.4,0-2.4-1-2.4-2.4
			c0-1.4,0.9-2.5,2.6-2.5c1.9,0,2.6,1.5,2.6,3.5c0,2-0.4,4.3-2.7,4.3c-1.5,0-2.2-0.9-2.4-1.8H167.4z M167.3,62.6
			c0,1,0.6,1.6,1.5,1.6c1.1,0,1.6-0.5,1.6-1.6c0-0.5-0.2-1.7-1.5-1.7C167.7,60.9,167.3,61.7,167.3,62.6z"/>
	</g>
</g>
<g id="Layer_1">
	<path class="st32" d="M83.4,82.3h128c4.4,0,8,3.5,8,7.8V159c0,4.3-3.6,7.8-8,7.8h-128c-4.4,0-8-3.5-8-7.8V90.1
		C75.4,85.8,79,82.3,83.4,82.3z"/>
	<path class="st33" d="M92.9,104.8h17.8c1.7,0,3.1,1.4,3.1,3v8.4c0,1.7-1.4,3-3.1,3H92.9c-1.7,0-3.1-1.4-3.1-3v-8.4
		C89.8,106.1,91.2,104.8,92.9,104.8z"/>
	<g>
		<path class="st34" d="M101.8,116.8c-1.5,0-2.8-1.2-2.8-2.7c0-0.8,0.4-1.6,1.1-2.1c-1.2-0.9-1.4-2.6-0.5-3.8
			c0.9-1.2,2.7-1.4,3.9-0.4s1.4,2.6,0.5,3.8c-0.1,0.2-0.3,0.3-0.5,0.4c1.2,0.9,1.4,2.6,0.5,3.8C103.4,116.4,102.6,116.8,101.8,116.8
			L101.8,116.8z M101.8,107.5c-1.3,0-2.4,1-2.4,2.3c0,0.8,0.4,1.5,1.1,2l0.2,0.1l-0.2,0.1c-1.1,0.7-1.4,2.1-0.7,3.2s2.2,1.4,3.3,0.7
			c1.1-0.7,1.4-2.1,0.7-3.2c-0.2-0.3-0.4-0.5-0.7-0.7l-0.2-0.1l0.2-0.1c1.1-0.7,1.4-2.1,0.7-3.2
			C103.4,107.9,102.6,107.5,101.8,107.5L101.8,107.5z"/>
		<rect x="89.8" y="108.8" class="st34" width="9.5" height="0.4"/>
		<rect x="104.4" y="108.8" class="st34" width="9.4" height="0.4"/>
		<rect x="89.8" y="114.7" class="st34" width="9.5" height="0.4"/>
		<rect x="104.4" y="114.7" class="st34" width="9.4" height="0.4"/>
		<rect x="94.4" y="104.8" class="st34" width="0.4" height="14.4"/>
		<rect x="107.5" y="109" class="st34" width="0.4" height="6"/>
		<rect x="109.7" y="104.8" class="st34" width="0.4" height="4.2"/>
		<rect x="109.7" y="114.9" class="st34" width="0.4" height="4.3"/>
	</g>
	<path class="st33" d="M91.9,132.3v6.2H91v-5.4h-1.1v-0.9H91.9z"/>
	<path class="st33" d="M94.7,133.2v0.8h-0.9v-0.8c0-0.1,0-0.2,0.1-0.3c0-0.1,0.1-0.2,0.2-0.3c0.1-0.1,0.2-0.1,0.3-0.2
		c0.1,0,0.2-0.1,0.4-0.1h2.9c0.1,0,0.2,0,0.4,0.1s0.2,0.1,0.3,0.2c0.1,0.1,0.2,0.2,0.2,0.3c0.1,0.1,0.1,0.2,0.1,0.3v1.1
		c0,0.1,0,0.2,0,0.3c0,0.1-0.1,0.2-0.1,0.3c-0.1,0.1-0.1,0.1-0.2,0.2c-0.1,0.1-0.2,0.1-0.3,0.2l-3.2,1.5v0.9h3v-0.8h0.9v1.7h-4.9
		v-1.6c0-0.1,0-0.2,0-0.3c0-0.1,0.1-0.2,0.1-0.3c0.1-0.1,0.1-0.1,0.2-0.2c0.1-0.1,0.2-0.1,0.3-0.2l3.2-1.5v-1.3L94.7,133.2z"/>
	<path class="st33" d="M100.1,136.7h0.9v0.3c0,0.2,0.1,0.4,0.2,0.5s0.3,0.2,0.5,0.2h1.8c0.2,0,0.4-0.1,0.5-0.2s0.2-0.3,0.2-0.5v-0.5
		c0-0.2-0.1-0.4-0.2-0.5c-0.1-0.1-0.3-0.2-0.5-0.2h-1.9v-0.9h1.9c0.2,0,0.4-0.1,0.5-0.2c0.1-0.1,0.2-0.3,0.1-0.5v-0.4
		c0-0.2-0.1-0.4-0.2-0.5c-0.1-0.1-0.3-0.2-0.5-0.2h-1.7c-0.2,0-0.4,0.1-0.5,0.2c-0.1,0.1-0.2,0.3-0.2,0.5v0.3h-0.9v-0.4
		c0-1,0.5-1.5,1.6-1.5h1.7c0.5,0,0.9,0.1,1.2,0.4c0.3,0.2,0.4,0.6,0.4,1.1v0.1c0,0.3-0.1,0.6-0.2,0.9c-0.1,0.2-0.3,0.4-0.6,0.5
		c0.3,0.1,0.5,0.2,0.6,0.5c0.1,0.2,0.2,0.5,0.2,0.9v0.3c0,1-0.5,1.5-1.6,1.5h-1.9c-1,0-1.6-0.5-1.6-1.5V136.7z"/>
	<path class="st33" d="M106.2,136.4l3.2-4.1h1.1v4.1h0.9v0.9h-0.9v1.3h-0.9v-1.3h-3.3V136.4z M109.5,136.4v-3l-2.3,3H109.5z"/>
	<path class="st33" d="M123.1,137c0,0.5-0.1,0.9-0.4,1.1c-0.3,0.3-0.6,0.4-1.2,0.4h-1.7c-1,0-1.6-0.5-1.6-1.5v-0.4h0.9v0.3
		c0,0.2,0.1,0.4,0.2,0.5c0.1,0.1,0.3,0.2,0.5,0.2h1.7c0.2,0,0.4-0.1,0.5-0.2c0.1-0.1,0.2-0.3,0.2-0.5v-0.8c0-0.2-0.1-0.4-0.2-0.5
		c-0.1-0.1-0.3-0.2-0.5-0.2h-3.1v-3.2h4.5v0.9h-3.6v1.4h2.2c0.5,0,0.9,0.1,1.2,0.4c0.3,0.3,0.4,0.6,0.4,1.1L123.1,137L123.1,137z"/>
	<path class="st33" d="M124.8,133.2c0-0.2,0.1-0.5,0.3-0.6c0.1-0.1,0.2-0.1,0.3-0.2c0.1,0,0.2-0.1,0.4-0.1h2.9c0.1,0,0.2,0,0.4,0.1
		s0.2,0.1,0.3,0.2c0.1,0.1,0.2,0.2,0.2,0.3c0.1,0.1,0.1,0.2,0.1,0.3v0.8h-0.9v-0.8h-2.9v1.8h2.9c0.1,0,0.2,0,0.4,0.1
		c0.1,0,0.2,0.1,0.3,0.2c0.1,0.1,0.2,0.2,0.2,0.3c0.1,0.1,0.1,0.2,0.1,0.3v1.8c0,0.2-0.1,0.5-0.3,0.6c-0.1,0.1-0.2,0.1-0.3,0.2
		c-0.1,0-0.2,0.1-0.4,0.1h-2.9c-0.4,0-0.7-0.2-0.8-0.5c-0.1-0.1-0.1-0.2-0.1-0.3L124.8,133.2L124.8,133.2z M125.7,135.9v1.8h2.9
		v-1.8H125.7z"/>
	<path class="st33" d="M131.7,138.5l2.9-5.4H131v-0.9h4.9v0.3l-3.2,6H131.7z"/>
	<path class="st33" d="M138.5,138.5c-1,0-1.6-0.5-1.6-1.5v-0.3c0-0.4,0.1-0.7,0.2-0.9c0.1-0.2,0.4-0.4,0.6-0.5
		c-0.2-0.1-0.4-0.3-0.6-0.5c-0.1-0.3-0.2-0.6-0.2-0.9v-0.1c0-1,0.5-1.5,1.6-1.5h1.7c1,0,1.6,0.5,1.6,1.5v0.1c0,0.3-0.1,0.6-0.2,0.9
		c-0.1,0.2-0.3,0.4-0.6,0.5c0.3,0.1,0.5,0.2,0.6,0.5c0.1,0.2,0.2,0.5,0.2,0.9v0.3c0,1-0.5,1.5-1.6,1.5H138.5z M140.4,137.7
		c0.2,0,0.4-0.1,0.5-0.2c0.1-0.1,0.2-0.3,0.2-0.5v-0.5c0-0.2-0.1-0.4-0.2-0.5c-0.1-0.1-0.3-0.2-0.5-0.2h-1.8c-0.2,0-0.4,0-0.5,0.2
		c-0.1,0.1-0.2,0.3-0.2,0.5v0.5c0,0.2,0.1,0.4,0.2,0.5c0.1,0.1,0.3,0.2,0.5,0.2H140.4z M140.4,134.9c0.2,0,0.4-0.1,0.5-0.2
		c0.1-0.1,0.2-0.3,0.1-0.5v-0.4c0-0.2-0.1-0.4-0.2-0.5c-0.1-0.1-0.3-0.2-0.5-0.2h-1.7c-0.2,0-0.4,0.1-0.5,0.2
		c-0.1,0.1-0.2,0.3-0.2,0.5v0.4c0,0.2,0,0.4,0.1,0.5c0.1,0.1,0.3,0.2,0.5,0.2H140.4z"/>
	<path class="st33" d="M154.5,137.6c0,0.1,0,0.2-0.1,0.3c-0.1,0.3-0.5,0.5-0.8,0.5h-2.9c-0.1,0-0.2,0-0.4-0.1
		c-0.1,0-0.2-0.1-0.3-0.2c-0.2-0.2-0.3-0.4-0.3-0.6v-0.8h0.9v0.8h2.9v-1.8h-2.9c-0.1,0-0.2,0-0.4-0.1s-0.2-0.1-0.3-0.2
		c-0.1-0.1-0.2-0.2-0.2-0.3c-0.1-0.1-0.1-0.2-0.1-0.3v-1.8c0-0.1,0-0.2,0.1-0.3c0-0.1,0.1-0.2,0.2-0.3c0.1-0.1,0.2-0.1,0.3-0.2
		c0.1,0,0.2-0.1,0.4-0.1h2.9c0.1,0,0.2,0,0.4,0.1c0.1,0,0.2,0.1,0.3,0.2c0.2,0.2,0.3,0.4,0.3,0.6V137.6z M153.6,135v-1.8h-2.9v1.8
		H153.6z"/>
	<path class="st33" d="M161.5,137.6c0,0.1,0,0.2-0.1,0.3c0,0.1-0.1,0.2-0.2,0.3c-0.1,0.1-0.2,0.1-0.3,0.2c-0.1,0-0.2,0.1-0.4,0.1
		h-3.2c-0.5,0-0.9-0.4-0.9-0.9v-4.5c0-0.1,0-0.2,0.1-0.3c0.1-0.1,0.1-0.2,0.2-0.3s0.2-0.1,0.3-0.2c0.1,0,0.2-0.1,0.4-0.1h3.2
		c0.1,0,0.2,0,0.4,0.1s0.2,0.1,0.3,0.2c0.2,0.2,0.3,0.4,0.3,0.6V137.6z M157.4,133.2v4.5h3.2v-4.5H157.4z"/>
	<path class="st33" d="M164.9,132.3v6.2H164v-5.4h-1.1v-0.9H164.9z"/>
	<path class="st33" d="M167.7,133.2v0.8h-0.9v-0.8c0-0.2,0.1-0.5,0.3-0.6c0.1-0.1,0.2-0.1,0.3-0.2c0.1,0,0.2-0.1,0.4-0.1h2.9
		c0.1,0,0.2,0,0.4,0.1c0.2,0.1,0.4,0.3,0.5,0.5c0.1,0.1,0.1,0.2,0.1,0.3v1.1c0,0.1,0,0.2,0,0.3c0,0.1-0.1,0.2-0.1,0.3
		c-0.1,0.1-0.1,0.1-0.2,0.2c-0.1,0.1-0.2,0.1-0.3,0.2l-3.2,1.4v0.9h3v-0.8h0.9v1.7h-4.9v-1.6c0-0.1,0-0.2,0-0.3
		c0-0.1,0.1-0.2,0.1-0.3s0.1-0.1,0.2-0.2c0.1-0.1,0.2-0.1,0.3-0.2l3.2-1.5v-1.3L167.7,133.2z"/>
	<path class="st33" d="M179.2,136.7h0.9v0.3c0,0.2,0.1,0.4,0.2,0.5c0.1,0.1,0.3,0.2,0.5,0.2h1.9c0.2,0,0.4-0.1,0.5-0.2
		s0.2-0.3,0.2-0.5v-0.5c0-0.2-0.1-0.4-0.2-0.5c-0.1-0.1-0.3-0.2-0.5-0.2h-1.9v-0.9h1.9c0.2,0,0.4-0.1,0.5-0.2
		c0.1-0.1,0.2-0.3,0.1-0.5v-0.4c0-0.2-0.1-0.4-0.2-0.5c-0.1-0.1-0.3-0.2-0.5-0.2h-1.7c-0.2,0-0.4,0.1-0.5,0.2
		c-0.1,0.1-0.2,0.3-0.2,0.5v0.3h-0.9v-0.4c0-1,0.5-1.5,1.6-1.5h1.7c0.5,0,0.9,0.1,1.2,0.4c0.3,0.2,0.4,0.6,0.4,1.1v0.1
		c0,0.3-0.1,0.6-0.2,0.9c-0.1,0.2-0.3,0.4-0.6,0.5c0.3,0.1,0.5,0.2,0.6,0.5c0.1,0.2,0.2,0.5,0.2,0.9v0.3c0,1-0.5,1.5-1.6,1.5h-1.9
		c-1,0-1.6-0.5-1.6-1.5V136.7z"/>
	<path class="st33" d="M185.2,136.4l3.2-4.1h1.1v4.1h0.9v0.9h-0.9v1.3h-0.9v-1.3h-3.3V136.4z M188.5,136.4v-3l-2.3,3H188.5z"/>
	<path class="st33" d="M196.1,137c0,0.5-0.1,0.9-0.4,1.1c-0.3,0.2-0.6,0.4-1.2,0.4h-1.7c-1,0-1.6-0.5-1.6-1.5v-0.4h0.9v0.3
		c0,0.2,0.1,0.4,0.2,0.5c0.1,0.1,0.3,0.2,0.5,0.2h1.7c0.2,0,0.4-0.1,0.5-0.2s0.2-0.3,0.2-0.5v-0.8c0-0.2-0.1-0.4-0.2-0.5
		c-0.1-0.1-0.3-0.2-0.5-0.2h-3.1v-3.2h4.5v0.9h-3.6v1.4h2.2c0.5,0,0.9,0.1,1.2,0.4c0.3,0.3,0.4,0.6,0.4,1.1V137z"/>
	<path class="st33" d="M197.8,133.2c0-0.1,0-0.2,0.1-0.3c0.1-0.1,0.1-0.2,0.2-0.3s0.2-0.1,0.3-0.2c0.1,0,0.2-0.1,0.4-0.1h2.9
		c0.1,0,0.2,0,0.4,0.1s0.2,0.1,0.3,0.2c0.2,0.2,0.3,0.4,0.3,0.6v0.8h-0.9v-0.8h-2.9v1.8h2.9c0.1,0,0.2,0,0.4,0.1
		c0.2,0.1,0.4,0.3,0.5,0.5c0.1,0.1,0.1,0.2,0.1,0.3v1.8c0,0.1,0,0.2-0.1,0.3c-0.1,0.3-0.5,0.5-0.8,0.5h-2.9c-0.5,0-0.9-0.4-0.9-0.9
		l0,0V133.2z M198.7,135.9v1.8h2.9v-1.8H198.7z"/>
	<path class="st33" d="M90.7,142.5v2.9h-0.4V143h-0.5v-0.4H90.7z"/>
	<path class="st33" d="M92,143v0.4h-0.4V143c0-0.1,0-0.1,0-0.2c0,0,0.1-0.1,0.1-0.1s0.1-0.1,0.1-0.1c0.1,0,0.1,0,0.2,0h1.4
		c0.1,0,0.1,0,0.2,0c0.1,0,0.1,0,0.1,0.1s0.1,0.1,0.1,0.1c0,0,0,0.1,0,0.2v0.5c0,0,0,0.1,0,0.1c0,0,0,0.1-0.1,0.1
		c0,0-0.1,0.1-0.1,0.1c0,0-0.1,0.1-0.1,0.1l-1.5,0.7v0.4h1.4v-0.4h0.4v0.8h-2.3v-0.8c0,0,0-0.1,0-0.1c0-0.1,0.1-0.2,0.1-0.2
		c0,0,0.1-0.1,0.1-0.1l1.5-0.7v-0.6L92,143z"/>
	<path class="st33" d="M94.5,144.6h0.4v0.2c0,0.1,0,0.2,0.1,0.2c0.1,0.1,0.2,0.1,0.2,0.1h0.9c0.1,0,0.2,0,0.2-0.1
		c0.1-0.1,0.1-0.2,0.1-0.2v-0.2c0-0.1,0-0.2-0.1-0.2c-0.1-0.1-0.2-0.1-0.2-0.1h-0.9v-0.4h0.9c0.1,0,0.2,0,0.2-0.1
		c0.1-0.1,0.1-0.1,0.1-0.2v-0.2c0-0.1,0-0.2-0.1-0.2c-0.1-0.1-0.2-0.1-0.2-0.1h-0.8c-0.1,0-0.2,0-0.2,0.1c-0.1,0.1-0.1,0.2-0.1,0.2
		v0.2h-0.4v-0.2c0-0.5,0.2-0.7,0.7-0.7h0.8c0.2,0,0.4,0.1,0.6,0.2s0.2,0.3,0.2,0.5v0c0,0.1,0,0.3-0.1,0.4c-0.1,0.1-0.1,0.2-0.3,0.2
		c0.1,0,0.2,0.1,0.3,0.2c0.1,0.1,0.1,0.3,0.1,0.4v0.1c0,0.5-0.2,0.7-0.7,0.7h-0.9c-0.5,0-0.7-0.2-0.7-0.7V144.6z"/>
	<path class="st33" d="M97.4,144.5l1.5-1.9h0.5v1.9h0.4v0.4h-0.4v0.6h-0.4v-0.6h-1.6V144.5z M98.9,144.5V143l-1.1,1.4L98.9,144.5z"
		/>
	<path class="st33" d="M184.1,147.1c0,0.1,0,0.1,0,0.2c0,0-0.1,0.1-0.1,0.1c0,0-0.1,0.1-0.1,0.1s-0.1,0-0.2,0h-1.5
		c-0.1,0-0.1,0-0.2,0s-0.1,0-0.1-0.1c-0.1-0.1-0.1-0.2-0.1-0.3V145c0-0.2,0.1-0.3,0.3-0.4c0.1,0,0.1,0,0.2,0h1.5c0.1,0,0.1,0,0.2,0
		c0.1,0,0.1,0,0.1,0.1c0,0,0.1,0.1,0.1,0.1c0,0,0,0.1,0,0.2L184.1,147.1z M182.2,145v2.1h1.5V145H182.2z"/>
	<path class="st33" d="M185,145c0-0.1,0-0.1,0-0.2c0,0,0.1-0.1,0.1-0.1c0,0,0.1-0.1,0.1-0.1c0.1,0,0.1,0,0.2,0h1.4
		c0.1,0,0.1,0,0.2,0s0.1,0,0.1,0.1c0,0,0.1,0.1,0.1,0.1c0,0,0,0.1,0,0.2v0.4h-0.4V145h-1.4v0.8h1.4c0.2,0,0.3,0.1,0.4,0.3
		c0,0,0,0.1,0,0.2v0.8c0,0.1,0,0.1,0,0.2c0,0.1-0.1,0.2-0.2,0.2c-0.1,0-0.1,0-0.2,0h-1.4c-0.1,0-0.1,0-0.2,0c-0.1,0-0.1,0-0.1-0.1
		c0,0-0.1-0.1-0.1-0.1c0,0,0-0.1,0-0.2L185,145z M185.4,146.3v0.8h1.4v-0.8H185.4z"/>
	<path class="st33" d="M187.9,147.8l1.1-3.3h0.4l-1.2,3.3H187.9z"/>
	<path class="st33" d="M190,146.7h0.4v0.2c0,0.1,0,0.2,0.1,0.2c0.1,0.1,0.2,0.1,0.2,0.1h0.9c0.1,0,0.2,0,0.2-0.1
		c0.1-0.1,0.1-0.2,0.1-0.2v-0.2c0-0.1,0-0.2-0.1-0.2c-0.1-0.1-0.2-0.1-0.2-0.1h-0.9v-0.4h0.9c0.1,0,0.2,0,0.2-0.1
		c0.1-0.1,0.1-0.1,0.1-0.2v-0.2c0-0.1,0-0.2-0.1-0.2c-0.1-0.1-0.2-0.1-0.2-0.1h-0.8c-0.1,0-0.2,0-0.2,0.1c-0.1,0.1-0.1,0.2-0.1,0.2
		v0.2H190v-0.2c0-0.5,0.2-0.7,0.7-0.7h0.8c0.2,0,0.4,0.1,0.6,0.2c0.1,0.1,0.2,0.3,0.2,0.5v0c0,0.1,0,0.3-0.1,0.4
		c-0.1,0.1-0.1,0.2-0.3,0.2c0.1,0,0.2,0.1,0.3,0.2c0.1,0.1,0.1,0.3,0.1,0.4v0.1c0,0.5-0.2,0.7-0.7,0.7h-0.9c-0.5,0-0.7-0.2-0.7-0.7
		L190,146.7z"/>
	<path class="st33" d="M195.5,147.1c0,0.1,0,0.1,0,0.2c0,0-0.1,0.1-0.1,0.1c0,0-0.1,0.1-0.1,0.1s-0.1,0-0.2,0h-1.5
		c-0.1,0-0.1,0-0.2,0s-0.1,0-0.1-0.1c0,0-0.1-0.1-0.1-0.1c0,0,0-0.1,0-0.2V145c0-0.1,0-0.1,0-0.2c0,0,0.1-0.1,0.1-0.1
		c0,0,0.1-0.1,0.1-0.1s0.1,0,0.2,0h1.5c0.1,0,0.1,0,0.2,0s0.1,0,0.1,0.1c0,0,0.1,0.1,0.1,0.1c0,0,0,0.1,0,0.2V147.1z M193.6,145v2.1
		h1.5V145H193.6z"/>
	<path class="st33" d="M169.5,145.4l-0.8-1.9h0.3l0.6,1.6l0.6-1.6h0.3l-0.8,1.9H169.5z"/>
	<path class="st33" d="M171.7,143.5l0.8,1.9h-0.3L172,145h-0.9l-0.2,0.4h-0.3l0.8-1.9H171.7z M171.2,144.7h0.7l-0.3-0.8L171.2,144.7
		z"/>
	<path class="st33" d="M173.2,143.5v1.6h1v0.3h-1.3v-1.9H173.2z"/>
	<path class="st33" d="M174.9,143.5v1.9h-0.3v-1.9H174.9z"/>
	<path class="st33" d="M175.5,145.4v-1.9h1c0.1,0,0.2,0,0.3,0c0.1,0,0.2,0.1,0.2,0.1s0.1,0.1,0.1,0.2c0,0.1,0.1,0.2,0.1,0.3v0.6
		c0,0.1,0,0.2-0.1,0.3c0,0.1-0.1,0.1-0.1,0.2s-0.1,0.1-0.2,0.1c-0.1,0-0.2,0-0.3,0L175.5,145.4L175.5,145.4z M176.5,145.2
		c0.2,0,0.4-0.1,0.4-0.3c0,0,0-0.1,0-0.1v-0.6c0-0.1,0-0.1,0-0.2c0,0,0-0.1-0.1-0.1c0,0-0.1-0.1-0.1-0.1s-0.1,0-0.2,0h-0.7v1.4
		L176.5,145.2z"/>
	<path class="st33" d="M169,146.8h1.6v0.3H170v1.6h-0.3v-1.6H169V146.8z"/>
	<path class="st33" d="M172.7,146.8v1.9h-0.3v-0.8h-1.1v0.8H171v-1.9h0.3v0.8h1.1v-0.8H172.7z"/>
	<path class="st33" d="M174.9,147.5c0,0.3-0.1,0.4-0.3,0.5l0.4,0.8h-0.3l-0.4-0.8h-0.6v0.8h-0.3v-1.9h1.1c0.3,0,0.5,0.2,0.5,0.5
		L174.9,147.5z M173.6,147.7h0.8c0.1,0,0.2,0,0.2-0.1c0,0,0,0,0-0.1v-0.2c0-0.1,0-0.2-0.1-0.2c0,0-0.1,0-0.1,0h-0.8V147.7z"/>
	<path class="st33" d="M175.4,146.8h0.3v1.6h1.1v-1.6h0.3v1.6c0,0,0,0.1,0,0.1c0,0,0,0.1-0.1,0.1c0,0-0.1,0-0.1,0.1s-0.1,0-0.1,0
		h-1.1c-0.1,0-0.2,0-0.2-0.1c0,0-0.1-0.1-0.1-0.1c0,0,0-0.1,0-0.1L175.4,146.8z"/>
	<polygon class="st33" points="178.5,144.8 178.5,147.2 180,146 	"/>
	<path class="st33" d="M90.8,154.8c0-0.1,0-0.1,0-0.2s0.1-0.1,0.1-0.2c0.1,0,0.1-0.1,0.2-0.1c0.1,0,0.1,0,0.2,0h1.9
		c0.1,0,0.1,0,0.2,0c0.1,0,0.1,0.1,0.2,0.1s0.1,0.1,0.1,0.2c0,0.1,0,0.1,0,0.2v0.4h-0.5v-0.4h-1.9v2.5h1.9v-0.4h0.5v0.4
		c0,0.1,0,0.1,0,0.2c-0.1,0.2-0.3,0.3-0.5,0.3h-1.9c-0.1,0-0.1,0-0.2,0c-0.1,0-0.1-0.1-0.2-0.1c-0.1,0-0.1-0.1-0.1-0.2s0-0.1,0-0.2
		L90.8,154.8z"/>
	<path class="st33" d="M96.4,154.3l1.4,3.5h-0.5l-0.3-0.8h-1.6l-0.3,0.8h-0.5l1.4-3.5H96.4z M95.5,156.5h1.2l-0.6-1.5L95.5,156.5z"
		/>
	<path class="st33" d="M101.3,155.6c0,0.5-0.2,0.8-0.6,0.8l0.7,1.4h-0.6l-0.7-1.4H99v1.4h-0.5v-3.5h2c0.6,0,0.9,0.3,0.9,0.9
		L101.3,155.6z M99,155.9h1.4c0.2,0,0.3-0.1,0.4-0.2c0,0,0-0.1,0-0.1v-0.3c0-0.1,0-0.2-0.1-0.3c-0.1-0.1-0.2-0.1-0.3-0.1H99V155.9z"
		/>
	<path class="st33" d="M102.4,157.8v-3.5h1.8c0.2,0,0.4,0,0.5,0.1c0.3,0.1,0.5,0.3,0.7,0.6c0.1,0.2,0.1,0.3,0.1,0.5v1.1
		c0,0.2,0,0.3-0.1,0.5c-0.1,0.1-0.1,0.3-0.3,0.4c-0.1,0.1-0.2,0.2-0.4,0.2c-0.2,0.1-0.3,0.1-0.5,0.1L102.4,157.8z M104.2,157.3
		c0.4,0,0.7-0.2,0.7-0.6c0,0,0-0.1,0-0.1v-1.1c0-0.1,0-0.2-0.1-0.3c-0.1-0.2-0.2-0.3-0.4-0.4c-0.1,0-0.2,0-0.3,0h-1.3v2.5H104.2z"/>
	<path class="st33" d="M109.5,154.3v3.5H109v-1.5h-2.1v1.5h-0.5v-3.5h0.5v1.5h2v-1.5H109.5z"/>
	<path class="st33" d="M113.6,157.3c0,0.1,0,0.1,0,0.2c-0.1,0.2-0.3,0.3-0.5,0.3h-2c-0.1,0-0.1,0-0.2,0c-0.2-0.1-0.3-0.3-0.3-0.5
		v-2.5c0-0.1,0-0.1,0-0.2c0-0.1,0.1-0.1,0.1-0.2c0.1,0,0.1-0.1,0.2-0.1c0.1,0,0.1,0,0.2,0h2c0.1,0,0.1,0,0.2,0
		c0.1,0,0.1,0.1,0.2,0.1c0.1,0,0.1,0.1,0.1,0.2s0,0.1,0,0.2L113.6,157.3z M111.1,154.8v2.5h2v-2.5H111.1z"/>
	<path class="st33" d="M115.2,154.3v3h1.8v0.5h-2.4v-3.5H115.2z"/>
	<path class="st33" d="M117.8,157.8v-3.5h1.8c0.2,0,0.4,0,0.5,0.1c0.2,0,0.3,0.1,0.4,0.2c0.1,0.1,0.2,0.2,0.3,0.4
		c0.1,0.2,0.1,0.3,0.1,0.5v1.1c0,0.2,0,0.3-0.1,0.5c-0.1,0.1-0.1,0.3-0.3,0.4c-0.1,0.1-0.2,0.2-0.4,0.2c-0.2,0.1-0.3,0.1-0.5,0.1
		L117.8,157.8z M119.6,157.3c0.4,0,0.7-0.2,0.7-0.6c0,0,0-0.1,0-0.1v-1.1c0-0.1,0-0.2-0.1-0.3c0-0.1-0.1-0.2-0.1-0.2
		c-0.1-0.1-0.1-0.1-0.2-0.1c-0.1,0-0.2,0-0.3,0h-1.3v2.5L119.6,157.3z"/>
	<path class="st33" d="M121.9,154.3h2.6v0.5h-2.1v1h1.8v0.5h-1.8v1h2.1v0.5h-2.6V154.3z"/>
	<path class="st33" d="M128.2,155.6c0,0.5-0.2,0.8-0.6,0.8l0.7,1.4h-0.6l-0.7-1.4h-1.1v1.4h-0.5v-3.5h2c0.6,0,0.9,0.3,0.9,0.9V155.6
		z M125.9,155.9h1.4c0.1,0,0.2,0,0.3-0.1c0.1-0.1,0.1-0.2,0.1-0.3v-0.3c0-0.2-0.1-0.3-0.3-0.4c0,0-0.1,0-0.1,0h-1.4L125.9,155.9
		L125.9,155.9z"/>
	<path class="st33" d="M131.4,157.8h-0.5v-3.5h0.5l2.2,2.7v-2.7h0.5v3.5h-0.5l-2.2-2.7V157.8z"/>
	<path class="st33" d="M136.8,154.3l1.4,3.5h-0.5l-0.3-0.8h-1.6l-0.3,0.8h-0.5l1.4-3.5H136.8z M135.9,156.5h1.2l-0.6-1.5
		L135.9,156.5z"/>
	<path class="st33" d="M140.8,157.8l-1.3-2.6v2.6h-0.5v-3.5h0.6l1.4,2.6l1.4-2.6h0.6v3.5h-0.5v-2.6l-1.3,2.6H140.8z"/>
	<path class="st33" d="M143.8,154.3h2.6v0.5h-2.1v1h1.8v0.5h-1.8v1h2.1v0.5h-2.6V154.3z"/>
	<path class="st33" d="M201.2,94.6v1.1c1.3,0,2.4,1,2.4,2.3h1.1C204.7,96.1,203.1,94.6,201.2,94.6z"/>
	<path class="st33" d="M201.2,92.5v1.2c2.5,0,4.4,1.9,4.4,4.3h1.2C206.8,95,204.3,92.5,201.2,92.5z"/>
	<path class="st33" d="M201.9,96.8c-0.3,0-0.6,0.3-0.6,0.6s0.3,0.6,0.6,0.6c0.3,0,0.6-0.3,0.6-0.6l0,0
		C202.4,97,202.2,96.8,201.9,96.8L201.9,96.8z"/>
	<polygon class="st33" points="88.3,113.5 88.3,109.9 86,111.7 	"/>
	<path class="st33" d="M198.5,107.3c0.4-1.5,0.3-3-0.3-4.4c-0.5-1.1-1.4-2.1-2.4-2.7c0,0,0,0-0.1,0c0,0,0,0,0,0
		c-0.1,0.3-0.3,0.5-0.5,0.8"/>
	<path class="st33" d="M182.7,106.2l-1.4,1.9c0,0,0,0,0,0l0,3.2c0,0,0,0,0,0l0,0h10"/>
	<path class="st33" d="M198.5,107.3c-0.6,2-2.3,3.6-4.2,3.9c-0.3,0-0.5,0.1-0.8,0.1c-0.3,0-1,0-2.1,0"/>
	<path class="st33" d="M182.4,91.3c2.4,0,4.8,0,7.2,0c1,0,1.9,0,2.9,0.3c2.5,1,4,3.8,3.5,6.6c-0.2,1-0.6,2-1.2,2.8
		c-0.8,0.9-1.6,1.5-2.7,1.8c-0.4,0.1-0.8,0.1-1.3,0.1c-1.9,0-3.8,0-5.7,0c0,0,0,0,0,0v-3.1c0,0,0,0,0,0c2,0,4,0,6,0
		c0.1,0,0.1,0,0.2,0c0.7-0.2,1.2-0.6,1.6-1.2c0.7-1.2,0.2-2.8-0.8-3.6c-0.4-0.3-0.9-0.4-1.4-0.4c-1.8,0-3.6,0-5.4,0
		c-0.1,0-0.1,0-0.1,0.1c-0.4,0.5-0.9,1.1-1.3,1.6c-0.8,1-1.6,2.1-2.3,3.1l-0.1,0.2c0,0,0,0,0,0l0,0c0,0,0,0,0,0v-8.1c0,0,0,0,0,0
		L182.4,91.3z"/>
	<path class="st33" d="M198.5,107.3c-0.6,2-2.3,3.6-4.2,3.9c-0.3,0-0.5,0.1-0.8,0.1c-0.3,0-1,0-2.1,0h-10c0,0,0,0,0,0l0,0l0-3.2
		c0,0,0,0,0,0l1.4-1.9c0.8-1,1.6-2,2.3-3.1c0,0,0,0,0,0l0,4.9c0,0,0,0,0,0c0,0,0,0,0,0c2.6,0,5.3,0,7.9,0c0.5,0,0.9,0,1.3-0.2
		c0.8-0.4,1.4-1.3,1.5-2.2c0.1-1.6-1-2.8-2.4-2.9c0,0,0,0,0,0c0.7-0.5,1.3-1,1.8-1.7c0.2-0.2,0.3-0.5,0.5-0.8c0,0,0,0,0.1,0l0,0
		c1.1,0.6,1.9,1.5,2.4,2.7C198.8,104.3,198.9,105.9,198.5,107.3z"/>
</g>
</svg>
