<?xml version="1.0" encoding="utf-8"?>
<!-- Generator: Adobe Illustrator 25.2.1, SVG Export Plug-In . SVG Version: 6.00 Build 0)  -->
<svg version="1.1" id="Camada_1" xmlns="http://www.w3.org/2000/svg" xmlns:xlink="http://www.w3.org/1999/xlink" x="0px" y="0px"
	 viewBox="0 0 1510.7 967.8" style="enable-background:new 0 0 1510.7 967.8;" xml:space="preserve">
<style type="text/css">
	.st0{fill:#242424;}
	.st1{fill:#4D4D4D;}
	.st2{fill:#909090;}
</style>
<g id="Layer_1">
	<path class="st0" d="M154.5,39.4h1256.3c43.5,0,78.7,35.2,78.7,78.7v693.4c0,43.5-35.2,78.7-78.7,78.7H154.5
		c-43.5,0-78.7-35.2-78.7-78.7V118.1C75.8,74.7,111,39.4,154.5,39.4z"/>
	<path class="st1" d="M248,266h174.2c16.8,0,30.3,13.6,30.3,30.3v84.1c0,16.8-13.6,30.3-30.3,30.3H248c-16.8,0-30.3-13.6-30.3-30.3
		v-84.1C217.6,279.6,231.2,266,248,266z"/>
	<g>
		<path class="st2" d="M335,387.1c-15,0-27.3-12.1-27.3-27.2c0-8.4,3.8-16.3,10.4-21.4c-11.8-9.3-13.8-26.5-4.5-38.3
			c9.3-11.8,26.5-13.8,38.3-4.5s13.8,26.5,4.5,38.3c-1.3,1.7-2.8,3.2-4.5,4.5c11.8,9.3,13.9,26.4,4.5,38.3
			C351.3,383.3,343.4,387.1,335,387.1L335,387.1z M335,293.5c-13,0-23.6,10.5-23.6,23.5c0,8.1,4.1,15.6,10.9,19.9l2.4,1.5l-2.4,1.5
			c-11,7-14.2,21.6-7.1,32.6s21.6,14.2,32.6,7.1s14.2-21.6,7.1-32.6c-1.8-2.9-4.3-5.3-7.1-7.1l-2.4-1.5l2.4-1.5
			c11-7,14.2-21.6,7.2-32.5C350.6,297.6,343.1,293.5,335,293.5L335,293.5z"/>
		<rect x="217.6" y="306.3" class="st2" width="93.6" height="3.7"/>
		<rect x="360.5" y="306.3" class="st2" width="92" height="3.7"/>
		<rect x="217.6" y="366.2" class="st2" width="93.6" height="3.7"/>
		<rect x="360.5" y="366.2" class="st2" width="92" height="3.7"/>
		<rect x="262.6" y="266" class="st2" width="3.7" height="144.8"/>
		<rect x="391.1" y="308.2" class="st2" width="3.7" height="59.9"/>
		<rect x="412.8" y="266" class="st2" width="3.7" height="42.1"/>
		<rect x="412.8" y="368" class="st2" width="3.7" height="42.8"/>
	</g>
	<path class="st1" d="M237.8,543v62.9h-9V552H218v-9L237.8,543z"/>
	<path class="st1" d="M265.7,552v8.2h-9V552c0-1.2,0.2-2.4,0.7-3.5c0.4-1.1,1.1-2,1.9-2.8c0.8-0.8,1.8-1.5,2.9-1.9
		c1.1-0.5,2.3-0.7,3.5-0.7h28.5c1.2,0,2.4,0.2,3.5,0.7c1.1,0.5,2,1.1,2.9,1.9c0.8,0.8,1.5,1.8,1.9,2.8c0.5,1.1,0.7,2.3,0.7,3.5v11.5
		c0,1.1-0.1,2.2-0.3,3.3c-0.2,0.9-0.6,1.8-1.1,2.6c-0.5,0.8-1.2,1.5-2,2.1c-0.9,0.7-1.9,1.3-2.9,1.8l-31.2,14.6v9.1h29.6v-8.1h9V606
		h-47.6v-16.5c0-1.1,0.1-2.2,0.4-3.3c0.2-0.9,0.6-1.8,1.1-2.6c0.5-0.8,1.2-1.5,2-2.1c0.9-0.7,1.8-1.3,2.8-1.7l31.2-14.7v-13
		L265.7,552z"/>
	<path class="st1" d="M318.7,586.9h8.8v3.3c0,2.4,0.5,4.1,1.6,5.2s2.8,1.7,5.2,1.7h18.1c2.4,0,4.1-0.6,5.2-1.7s1.6-2.8,1.6-5.2v-4.9
		c0-2.4-0.5-4.1-1.6-5.2c-1-1.1-2.8-1.6-5.2-1.6h-18.6v-8.8h18.3c2.2-0.1,3.8-0.7,4.7-1.8c1.1-1.5,1.6-3.3,1.4-5.1v-4.1
		c0-2.4-0.5-4.2-1.6-5.3c-1.1-1.1-2.8-1.7-5.2-1.7h-16.4c-2.4,0-4.1,0.6-5.1,1.7c-1.1,1.1-1.6,2.9-1.6,5.3v3.3h-8.8v-3.8
		c0-10.2,5.1-15.3,15.3-15.3h16.9c5.2,0,9,1.3,11.5,3.8s3.8,6.4,3.8,11.5v1.1c0.1,3-0.5,6-1.9,8.8c-1.2,2.3-3.1,4.1-5.4,5.1
		c2.6,0.7,4.8,2.4,6.1,4.7c1.4,2.4,2.1,5.5,2.1,9.4v3.2c0,10.2-5.1,15.3-15.3,15.3H334c-10.2,0-15.3-5.1-15.3-15.3L318.7,586.9z"/>
	<path class="st1" d="M377.9,584.3l31-41.2h10.6v41.2h8.5v8.6h-8.5v13h-9v-13h-32.6V584.3z M410.5,584.3v-30.4l-22.8,30.4H410.5z"/>
	<path class="st1" d="M544.5,590.7c-0.1,5.1-1.4,8.9-3.9,11.5s-6.3,3.8-11.4,3.8h-16.9c-10.2,0-15.3-5.1-15.3-15.3v-3.8h8.8v3.3
		c0,2.4,0.5,4.1,1.6,5.2s2.8,1.7,5.2,1.7H529c2.4,0,4.1-0.6,5.2-1.7c1.1-1.1,1.6-2.9,1.6-5.2v-8.5c0-2.4-0.5-4.1-1.6-5.2
		c-1.1-1.1-2.8-1.6-5.2-1.6h-30.1V543h44v9h-35v14.1h21.4c5.2,0,9,1.2,11.5,3.8s3.8,6.3,3.8,11.5V590.7z"/>
	<path class="st1" d="M560.7,552c0-2.4,0.9-4.7,2.6-6.3c0.8-0.8,1.8-1.5,2.9-1.9c1.1-0.5,2.3-0.7,3.5-0.7h28.7
		c1.2,0,2.4,0.2,3.5,0.7c1.1,0.5,2,1.1,2.9,1.9c0.8,0.8,1.5,1.8,1.9,2.8c0.5,1.1,0.7,2.3,0.7,3.5v8.2h-9V552h-28.7v18h28.7
		c1.2,0,2.4,0.2,3.5,0.7c1.1,0.5,2.1,1.1,2.9,1.9c0.8,0.8,1.5,1.8,1.9,2.9c0.5,1.1,0.7,2.3,0.7,3.5v18c0,2.4-0.9,4.7-2.6,6.4
		c-0.8,0.8-1.8,1.5-2.9,1.9c-1.1,0.5-2.3,0.7-3.5,0.7h-28.7c-3.6,0-6.9-2.2-8.3-5.5c-0.5-1.1-0.7-2.3-0.7-3.5V552z M569.7,579v18
		h28.7v-18H569.7z"/>
	<path class="st1" d="M628.8,605.9L657,552h-35.2v-9h48.5v2.7l-31.2,60.2L628.8,605.9z"/>
	<path class="st1" d="M695.5,605.9c-10.2,0-15.3-5.1-15.3-15.3v-3.2c0-3.9,0.7-7.1,2.1-9.4c1.3-2.3,3.5-4,6.1-4.7
		c-2.3-1.1-4.2-2.9-5.4-5.1c-1.3-2.7-2-5.7-1.9-8.8v-1.1c0-10.2,5.1-15.3,15.3-15.3h16.9c10.2,0,15.3,5.1,15.3,15.3v1.1
		c0.1,3-0.5,6-1.9,8.8c-1.2,2.3-3.1,4.1-5.4,5.1c2.6,0.7,4.8,2.4,6.1,4.7c1.4,2.4,2.1,5.5,2.1,9.4v3.2c0,10.2-5.1,15.3-15.3,15.3
		H695.5z M713.9,597.1c2.4,0,4.1-0.6,5.2-1.7c1.1-1.1,1.6-2.8,1.6-5.2v-4.9c0-2.4-0.5-4.1-1.6-5.2c-1.1-1.1-2.8-1.6-5.2-1.6h-18.1
		c-2.4,0-4.1,0.5-5.2,1.6c-1,1.1-1.6,2.8-1.6,5.2v4.9c0,2.4,0.5,4.1,1.6,5.2s2.8,1.7,5.2,1.7H713.9z M713.6,569.7
		c2.2-0.1,3.8-0.7,4.7-1.8c1-1.5,1.5-3.3,1.4-5.1v-4.1c0-2.4-0.5-4.2-1.6-5.3s-2.8-1.7-5.1-1.7h-16.4c-2.4,0-4.1,0.6-5.1,1.7
		c-1.1,1.1-1.6,2.9-1.6,5.3v4.1c-0.1,1.8,0.4,3.6,1.4,5.1c1,1.1,2.5,1.7,4.7,1.8H713.6z"/>
	<path class="st1" d="M852.5,596.9c0,1.2-0.2,2.4-0.7,3.5c-1.4,3.3-4.7,5.5-8.3,5.5h-28.7c-1.2,0-2.4-0.2-3.5-0.7
		c-1.1-0.5-2.1-1.1-2.9-1.9c-1.7-1.7-2.6-4-2.6-6.4v-8.1h9v8.1h28.7v-18h-28.7c-1.2,0-2.4-0.2-3.5-0.7c-1.1-0.5-2-1.1-2.9-1.9
		c-0.8-0.8-1.5-1.8-1.9-2.8c-0.5-1.1-0.7-2.3-0.7-3.5v-18c0-1.2,0.2-2.4,0.7-3.5c0.4-1.1,1.1-2,1.9-2.8c0.8-0.8,1.8-1.5,2.9-1.9
		c1.1-0.5,2.3-0.7,3.5-0.7h28.7c1.2,0,2.4,0.2,3.5,0.7c1.1,0.5,2,1.1,2.9,1.9c1.7,1.7,2.7,4,2.6,6.3V596.9z M843.5,570v-18h-28.7v18
		H843.5z"/>
	<path class="st1" d="M920.8,596.9c0,1.2-0.2,2.4-0.7,3.5c-0.4,1.1-1.1,2-1.9,2.9c-0.8,0.8-1.8,1.5-2.9,1.9
		c-1.1,0.5-2.3,0.7-3.5,0.7h-31.5c-5,0-9-4-9-9V552c0-1.2,0.2-2.4,0.7-3.5c0.5-1.1,1.1-2,1.9-2.8c0.8-0.8,1.8-1.5,2.9-1.9
		c1.1-0.5,2.3-0.7,3.5-0.7h31.5c1.2,0,2.4,0.2,3.5,0.7c1.1,0.5,2,1.1,2.9,1.9c1.7,1.7,2.6,4,2.6,6.3L920.8,596.9z M880.4,552v44.9
		h31.5V552H880.4z"/>
	<path class="st1" d="M954.1,543v62.9h-9V552h-10.8v-9L954.1,543z"/>
	<path class="st1" d="M982,552v8.2h-9V552c0-2.4,0.9-4.7,2.6-6.3c0.8-0.8,1.8-1.5,2.9-1.9c1.1-0.5,2.3-0.7,3.5-0.7h28.5
		c1.2,0,2.4,0.2,3.5,0.7c2.1,0.9,3.9,2.6,4.8,4.8c0.5,1.1,0.7,2.3,0.7,3.5v11.5c0,1.1-0.1,2.2-0.3,3.3c-0.2,0.9-0.6,1.8-1.1,2.6
		c-0.5,0.8-1.2,1.5-2,2.1c-0.9,0.7-1.9,1.3-2.9,1.8L982,587.9v9.1h29.6v-8.1h9v17.1H973v-16.5c0-1.1,0.1-2.2,0.4-3.3
		c0.2-0.9,0.6-1.8,1.1-2.6c0.5-0.8,1.2-1.5,2-2.1c0.9-0.7,1.8-1.3,2.8-1.7l31.2-14.7v-13L982,552z"/>
	<path class="st1" d="M1094.2,586.9h8.8v3.3c0,2.4,0.5,4.1,1.6,5.2c1.1,1.1,2.8,1.7,5.2,1.7h18.2c2.4,0,4.1-0.6,5.2-1.7
		s1.6-2.8,1.6-5.2v-4.9c0-2.4-0.5-4.1-1.6-5.2c-1.1-1.1-2.8-1.6-5.2-1.6h-18.6v-8.8h18.3c2.2-0.1,3.8-0.7,4.7-1.8
		c1.1-1.5,1.6-3.3,1.4-5.1v-4.1c0-2.4-0.5-4.2-1.6-5.3c-1.1-1.1-2.8-1.7-5.2-1.7h-16.4c-2.4,0-4.1,0.6-5.1,1.7s-1.6,2.9-1.6,5.3v3.3
		h-8.8v-3.8c0-10.2,5.1-15.3,15.3-15.3h16.9c5.2,0,9,1.3,11.5,3.8s3.7,6.4,3.8,11.5v1.1c0.1,3-0.5,6-1.9,8.8
		c-1.2,2.3-3.1,4.1-5.4,5.1c2.6,0.7,4.8,2.4,6.1,4.7c1.4,2.4,2.1,5.5,2.1,9.4v3.2c0,10.2-5.1,15.3-15.3,15.3h-18.7
		c-10.2,0-15.3-5.1-15.3-15.3V586.9z"/>
	<path class="st1" d="M1153.4,584.3l31-41.2h10.6v41.2h8.5v8.6h-8.5v13h-9v-13h-32.6L1153.4,584.3z M1186,584.3v-30.4l-22.8,30.4
		H1186z"/>
	<path class="st1" d="M1260.8,590.7c-0.1,5.1-1.4,8.9-3.9,11.5c-2.5,2.5-6.3,3.8-11.4,3.8h-16.9c-10.2,0-15.3-5.1-15.3-15.3v-3.8
		h8.8v3.3c0,2.4,0.5,4.1,1.6,5.2c1,1.1,2.8,1.7,5.2,1.7h16.3c2.4,0,4.1-0.6,5.2-1.7c1.1-1.1,1.6-2.9,1.6-5.2v-8.5
		c0-2.4-0.5-4.1-1.6-5.2c-1.1-1.1-2.8-1.6-5.2-1.6h-30.1V543h44.1v9h-35.1v14.1h21.4c5.2,0,9,1.2,11.5,3.8s3.8,6.3,3.8,11.5V590.7z"
		/>
	<path class="st1" d="M1277,552c0-1.2,0.2-2.4,0.7-3.5c0.5-1.1,1.1-2,1.9-2.8c0.8-0.8,1.8-1.5,2.9-1.9c1.1-0.5,2.3-0.7,3.5-0.7h28.7
		c1.2,0,2.4,0.2,3.5,0.7c1.1,0.5,2,1.1,2.9,1.9c1.7,1.7,2.6,4,2.6,6.3v8.2h-9V552H1286v18h28.7c1.2,0,2.4,0.2,3.5,0.7
		c2.2,0.9,3.9,2.6,4.8,4.8c0.5,1.1,0.7,2.3,0.7,3.5v18c0,1.2-0.2,2.4-0.7,3.5c-1.4,3.3-4.7,5.5-8.3,5.5H1286c-5,0-9-4-9-9l0,0V552z
		 M1286,579v18h28.7v-18H1286z"/>
	<path class="st1" d="M225.9,646.1v29.5h-4.2v-25.3h-5.1v-4.2H225.9z"/>
	<path class="st1" d="M239,650.3v3.8h-4.2v-3.8c0-0.6,0.1-1.1,0.3-1.6c0.2-0.5,0.5-0.9,0.9-1.3c0.4-0.4,0.8-0.7,1.3-0.9
		c0.5-0.2,1.1-0.3,1.6-0.3h13.3c0.6,0,1.1,0.1,1.7,0.3c0.5,0.2,0.9,0.5,1.3,0.9c0.4,0.4,0.7,0.8,0.9,1.3c0.2,0.5,0.3,1.1,0.3,1.6
		v5.4c0,0.5,0,1-0.2,1.5c-0.1,0.4-0.3,0.9-0.5,1.2c-0.2,0.4-0.6,0.7-0.9,1c-0.4,0.3-0.9,0.6-1.4,0.8l-14.6,6.8v4.3h13.9v-3.8h4.2v8
		h-22.3v-7.8c0-0.5,0.1-1,0.2-1.5c0.2-0.9,0.7-1.7,1.4-2.2c0.4-0.3,0.9-0.6,1.3-0.8l14.6-6.9v-6.1L239,650.3z"/>
	<path class="st1" d="M263.8,666.7h4.1v1.6c-0.1,0.9,0.2,1.8,0.7,2.4c0.7,0.6,1.5,0.9,2.4,0.8h8.5c0.9,0.1,1.8-0.2,2.4-0.8
		c0.5-0.7,0.8-1.6,0.7-2.4V666c0.1-0.9-0.2-1.8-0.7-2.4c-0.7-0.6-1.6-0.8-2.4-0.8h-8.7v-4.1h8.6c0.8,0,1.6-0.3,2.2-0.8
		c0.5-0.7,0.7-1.5,0.7-2.4v-1.9c0.1-0.9-0.2-1.8-0.8-2.5c-0.7-0.6-1.5-0.9-2.4-0.8h-7.7c-0.9-0.1-1.7,0.2-2.4,0.8
		c-0.6,0.7-0.8,1.6-0.8,2.5v1.6h-4.1v-1.8c0-4.8,2.4-7.2,7.2-7.2h7.9c2.4,0,4.2,0.6,5.4,1.8c1.2,1.2,1.8,3,1.8,5.4v0.5
		c0.1,1.4-0.2,2.8-0.9,4.1c-0.6,1.1-1.4,1.9-2.5,2.4c1.2,0.3,2.2,1.1,2.9,2.2c0.7,1.4,1.1,2.9,1,4.4v1.5c0,4.8-2.4,7.2-7.2,7.2H271
		c-4.8,0-7.2-2.4-7.2-7.2L263.8,666.7z"/>
	<path class="st1" d="M291.6,665.4l14.5-19.3h5v19.3h4v4.1h-4v6.1h-4.2v-6.1h-15.3V665.4z M306.9,665.4v-14.3l-10.7,14.2
		L306.9,665.4z"/>
	<path class="st1" d="M1143,692.5c0,0.6-0.1,1.1-0.3,1.6c-0.2,0.5-0.5,1-0.9,1.3c-0.4,0.4-0.8,0.7-1.3,0.9c-0.5,0.2-1.1,0.3-1.6,0.3
		H1124c-0.6,0-1.1-0.1-1.6-0.3c-0.5-0.2-1-0.5-1.3-0.9c-0.8-0.8-1.2-1.9-1.2-3v-21.1c0-1.7,1-3.2,2.6-3.9c0.5-0.2,1.1-0.3,1.6-0.3
		h14.8c0.6,0,1.1,0.1,1.6,0.3c0.5,0.2,1,0.5,1.3,0.9c0.4,0.4,0.7,0.8,0.9,1.3c0.2,0.5,0.3,1.1,0.3,1.6L1143,692.5z M1124,671.4v21.1
		h14.8v-21.1H1124z"/>
	<path class="st1" d="M1151.8,671.4c0-0.6,0.1-1.1,0.3-1.6c0.2-0.5,0.5-1,0.9-1.3c0.4-0.4,0.8-0.7,1.3-0.9c0.5-0.2,1.1-0.3,1.6-0.3
		h13.5c0.6,0,1.1,0.1,1.6,0.3c0.5,0.2,1,0.5,1.3,0.9c0.4,0.4,0.7,0.8,0.9,1.3c0.2,0.5,0.3,1.1,0.3,1.6v3.8h-4.2v-3.8H1156v8.4h13.5
		c1.7,0,3.2,1,3.9,2.6c0.2,0.5,0.3,1.1,0.3,1.6v8.4c0,0.6-0.1,1.1-0.3,1.6c-0.4,1-1.2,1.8-2.2,2.2c-0.5,0.2-1.1,0.3-1.6,0.3H1156
		c-0.6,0-1.1-0.1-1.6-0.3c-0.5-0.2-1-0.5-1.3-0.9c-0.4-0.4-0.7-0.8-0.9-1.3c-0.2-0.5-0.3-1.1-0.3-1.6L1151.8,671.4z M1156,684.1v8.4
		h13.5v-8.4H1156z"/>
	<path class="st1" d="M1180.5,698.8l11.2-33.7h4.1l-11.4,33.7H1180.5z"/>
	<path class="st1" d="M1200.8,687.8h4.1v1.6c-0.1,0.9,0.2,1.8,0.7,2.4c0.7,0.6,1.5,0.9,2.4,0.8h8.5c0.9,0.1,1.8-0.2,2.4-0.8
		c0.5-0.7,0.8-1.6,0.7-2.4v-2.3c0.1-0.9-0.2-1.8-0.7-2.4c-0.7-0.6-1.6-0.9-2.4-0.8h-8.7v-4.1h8.6c0.8,0,1.6-0.3,2.2-0.8
		c0.5-0.7,0.7-1.5,0.7-2.4v-1.9c0.1-0.9-0.2-1.8-0.8-2.5c-0.7-0.6-1.5-0.9-2.4-0.8h-7.7c-0.9-0.1-1.7,0.2-2.4,0.8
		c-0.6,0.7-0.8,1.6-0.8,2.5v1.6h-4.1v-1.8c0-4.8,2.4-7.2,7.2-7.2h7.9c2.4,0,4.2,0.6,5.4,1.8c1.2,1.2,1.8,3,1.8,5.4v0.5
		c0.1,1.4-0.2,2.8-0.9,4.1c-0.6,1.1-1.4,1.9-2.5,2.4c1.2,0.3,2.2,1.1,2.8,2.2c0.7,1.4,1.1,2.9,1,4.4v1.5c0,4.8-2.4,7.2-7.2,7.2h-8.8
		c-4.8,0-7.2-2.4-7.2-7.2L1200.8,687.8z"/>
	<path class="st1" d="M1254.7,692.5c0,0.6-0.1,1.1-0.3,1.6c-0.2,0.5-0.5,1-0.9,1.3c-0.4,0.4-0.8,0.7-1.3,0.9
		c-0.5,0.2-1.1,0.3-1.6,0.3h-14.8c-0.6,0-1.1-0.1-1.6-0.3c-0.5-0.2-1-0.5-1.3-0.9c-0.4-0.4-0.7-0.8-0.9-1.3
		c-0.2-0.5-0.3-1.1-0.3-1.6v-21.1c0-0.6,0.1-1.1,0.3-1.6c0.2-0.5,0.5-1,0.9-1.3c0.4-0.4,0.8-0.7,1.3-0.9c0.5-0.2,1.1-0.3,1.6-0.3
		h14.8c0.6,0,1.1,0.1,1.6,0.3c0.5,0.2,1,0.5,1.3,0.9c0.4,0.4,0.7,0.8,0.9,1.3c0.2,0.5,0.3,1.1,0.3,1.6L1254.7,692.5z M1235.7,671.4
		v21.1h14.8v-21.1H1235.7z"/>
	<path class="st1" d="M999.9,675.3l-7.4-19.3h3l6,15.9l6-15.9h2.9l-7.4,19.3H999.9z"/>
	<path class="st1" d="M1021.1,656l7.4,19.3h-2.8l-1.7-4.4h-8.7l-1.7,4.4h-2.7l7.4-19.3H1021.1z M1016.4,668.1h6.6l-3.3-8.5
		L1016.4,668.1z"/>
	<path class="st1" d="M1035.4,656v16.5h9.9v2.8h-12.7V656H1035.4z"/>
	<path class="st1" d="M1052.2,656v19.3h-2.8V656H1052.2z"/>
	<path class="st1" d="M1058,675.3V656h9.8c1,0,1.9,0.1,2.8,0.5c0.8,0.3,1.5,0.8,2.1,1.4c0.6,0.6,1.1,1.3,1.4,2.1
		c0.3,0.9,0.5,1.8,0.5,2.8v5.8c0,0.9-0.1,1.9-0.5,2.8c-0.3,0.8-0.8,1.5-1.4,2.1c-0.6,0.6-1.3,1.1-2.1,1.4c-0.9,0.3-1.8,0.5-2.8,0.5
		H1058z M1067.8,672.5c2,0.2,3.8-1.2,4-3.2c0-0.3,0-0.6,0-0.8v-5.8c0-0.6-0.1-1.1-0.3-1.7c-0.2-0.5-0.4-0.9-0.8-1.3
		c-0.4-0.3-0.8-0.6-1.3-0.8c-0.5-0.2-1.1-0.3-1.7-0.3h-7v13.8L1067.8,672.5z"/>
	<path class="st1" d="M995,689h15.4v2.8h-6.3v16.5h-2.8v-16.5H995V689z"/>
	<path class="st1" d="M1031.1,689v19.3h-2.8v-8.3h-11v8.3h-2.8V689h2.8v8.3h11V689H1031.1z"/>
	<path class="st1" d="M1052.1,695.9c0,2.7-1.2,4.2-3.4,4.6l3.6,7.8h-3l-3.6-7.7h-6v7.7h-2.8V689h10.6c3.1,0,4.7,1.6,4.7,4.7
		L1052.1,695.9z M1039.6,697.8h7.7c1,0.2,1.9-0.4,2.1-1.4c0-0.2,0-0.5,0-0.7v-1.9c0.2-1-0.4-1.9-1.4-2.1c-0.2,0-0.5,0-0.7,0h-7.7
		V697.8z"/>
	<path class="st1" d="M1057.5,689h2.8v16.5h11V689h2.8v16.5c0,0.4-0.1,0.7-0.2,1.1c-0.1,0.3-0.3,0.6-0.6,0.9
		c-0.3,0.3-0.6,0.5-0.9,0.6c-0.3,0.1-0.7,0.2-1.1,0.2h-11c-0.7,0-1.5-0.3-2-0.8c-0.3-0.3-0.5-0.6-0.6-0.9c-0.1-0.3-0.2-0.7-0.2-1.1
		L1057.5,689z"/>
	<polygon class="st1" points="1087.6,669.2 1087.6,693.5 1102.7,681.4 	"/>
	<path class="st1" d="M227.6,770c0-0.7,0.1-1.3,0.4-1.9c0.3-0.6,0.6-1.1,1.1-1.6c0.5-0.5,1-0.8,1.6-1.1c0.6-0.3,1.3-0.4,1.9-0.4
		h19.1c0.7,0,1.3,0.1,2,0.4c0.6,0.3,1.1,0.6,1.6,1.1c0.5,0.5,0.8,1,1.1,1.6c0.3,0.6,0.4,1.3,0.4,1.9v4.5h-5V770h-19.1v25.1h19.1
		v-4.5h5v4.5c0,0.7-0.1,1.4-0.4,2c-0.8,1.9-2.6,3.1-4.6,3.1h-19c-0.7,0-1.3-0.1-1.9-0.4c-0.6-0.3-1.2-0.6-1.6-1.1
		c-0.5-0.5-0.8-1-1.1-1.6c-0.3-0.6-0.4-1.3-0.4-2L227.6,770z"/>
	<path class="st1" d="M281.8,765l13.6,35.2h-5l-3.1-8.1h-15.9l-3.1,8.1h-5l13.6-35.2L281.8,765z M273.3,787h12l-6-15.5L273.3,787z"
		/>
	<path class="st1" d="M330.7,777.5c0,4.9-2.1,7.7-6.3,8.4l6.6,14.2h-5.6l-6.5-14h-11v14h-5V765h19.2c5.7,0,8.5,2.9,8.5,8.6
		L330.7,777.5z M308,781h14c1.7,0.3,3.4-0.8,3.8-2.5c0.1-0.4,0.1-0.8,0-1.2v-3.5c0.1-1-0.2-2.1-0.9-2.9c-0.8-0.7-1.9-1-2.9-0.9h-14
		V781z"/>
	<path class="st1" d="M340.6,800.2V765h17.9c1.7,0,3.5,0.3,5.1,0.9c3,1.1,5.3,3.4,6.4,6.4c0.6,1.6,0.9,3.3,0.9,5.1v10.6
		c0,1.7-0.3,3.4-0.9,5.1c-0.5,1.5-1.4,2.8-2.5,3.9c-1.1,1.1-2.4,1.9-3.9,2.5c-1.6,0.6-3.3,0.9-5.1,0.9L340.6,800.2z M358.5,795.2
		c3.6,0.4,6.9-2.2,7.3-5.8c0.1-0.5,0.1-1,0-1.4v-10.6c0-1-0.2-2.1-0.5-3.1c-0.6-1.7-2-3.1-3.7-3.7c-1-0.3-2-0.5-3.1-0.5h-12.8v25.1
		L358.5,795.2z"/>
	<path class="st1" d="M410.5,765v35.2h-5v-15h-20.2v15h-5V765h5V780h20.1V765H410.5z"/>
	<path class="st1" d="M451.2,795.1c0,0.7-0.1,1.4-0.4,2c-0.8,1.9-2.6,3.1-4.6,3.1h-20.1c-0.7,0-1.3-0.1-1.9-0.4
		c-1.9-0.8-3.1-2.6-3.1-4.6V770c0-0.7,0.1-1.3,0.4-1.9c0.3-0.6,0.6-1.1,1.1-1.6c0.5-0.5,1-0.8,1.6-1.1c0.6-0.3,1.3-0.4,1.9-0.4h20.1
		c0.7,0,1.4,0.1,2,0.4c0.6,0.3,1.1,0.6,1.6,1.1c0.5,0.5,0.8,1,1.1,1.6c0.3,0.6,0.4,1.3,0.4,1.9L451.2,795.1z M426.1,770v25.1h20.1
		V770H426.1z"/>
	<path class="st1" d="M466.7,765v30.1h18.1v5h-23.1V765H466.7z"/>
	<path class="st1" d="M492.3,800.2V765h17.9c1.7,0,3.5,0.3,5.1,0.9c1.5,0.5,2.8,1.4,3.9,2.5c1.1,1.1,1.9,2.4,2.5,3.9
		c0.6,1.6,0.9,3.3,0.9,5.1v10.6c0,1.7-0.3,3.4-0.9,5.1c-0.5,1.5-1.4,2.8-2.5,3.9c-1.1,1.1-2.4,1.9-3.9,2.5c-1.6,0.6-3.4,0.9-5.1,0.9
		L492.3,800.2z M510.2,795.2c3.6,0.4,6.9-2.2,7.3-5.8c0.1-0.5,0.1-1,0-1.5v-10.6c0-1-0.1-2.1-0.5-3.1c-0.3-0.9-0.8-1.6-1.4-2.3
		c-0.6-0.6-1.4-1.1-2.3-1.4c-1-0.3-2-0.5-3.1-0.5h-12.9v25.1L510.2,795.2z"/>
	<path class="st1" d="M532.1,765h25.6v5h-20.6V780h17.6v5h-17.6v10h20.6v5h-25.6V765z"/>
	<path class="st1" d="M594.5,777.5c0,4.9-2.1,7.7-6.3,8.4l6.6,14.2h-5.6l-6.5-14h-11v14h-5V765H586c5.7,0,8.5,2.9,8.5,8.6
		L594.5,777.5z M571.8,781h14c1,0.1,2.1-0.2,2.9-0.9c0.7-0.8,1-1.9,0.9-2.9v-3.5c0.3-1.7-0.8-3.4-2.5-3.8c-0.4-0.1-0.8-0.1-1.2,0
		h-14V781z"/>
	<path class="st1" d="M626,800.2h-5V765h5l21.1,27.3V765h5v35.2h-5L626,772.9V800.2z"/>
	<path class="st1" d="M678.2,765l13.6,35.2h-5l-3.1-8.1h-15.9l-3.1,8.1h-5l13.6-35.2L678.2,765z M669.7,787h12l-6-15.5L669.7,787z"
		/>
	<path class="st1" d="M717.5,800.2l-13.1-25.8v25.8h-5V765h5.5l13.4,26.5l13.4-26.5h5.5v35.2h-5v-25.8L719,800.2H717.5z"/>
	<path class="st1" d="M747.7,765h25.6v5h-20.6V780h17.6v5h-17.6v10h20.6v5h-25.6V765z"/>
	<path class="st1" d="M1310.7,163.6v10.9c12.9,0,23.3,10.4,23.3,23.3h10.9C1344.8,179,1329.5,163.7,1310.7,163.6z"/>
	<path class="st1" d="M1310.7,142.6v11.6c24.1,0,43.5,19.5,43.6,43.6h11.6C1365.8,167.4,1341.1,142.7,1310.7,142.6z"/>
	<path class="st1" d="M1317,185.3c-3.2,0-5.9,2.6-5.9,5.9s2.6,5.9,5.9,5.9c3.2,0,5.9-2.6,5.9-5.9c0,0,0,0,0,0
		C1322.8,187.9,1320.2,185.3,1317,185.3C1317,185.3,1317,185.3,1317,185.3z"/>
	<polygon class="st1" points="202.3,353.9 202.3,318.1 180.1,336 	"/>
	<path class="st1" d="M1283.6,291.6c4.3-14.7,3.2-30.4-3.1-44.4c-4.9-11.3-13.3-20.7-24-26.9c-0.2-0.1-0.4,0-0.5,0.1c0,0,0,0,0,0.1
		c-1.2,2.8-2.7,5.4-4.5,7.8"/>
	<path class="st1" d="M1129.3,280.2l-13.5,18.8c-0.1,0.1-0.2,0.3-0.2,0.5l-0.1,32.2c0,0.1,0.1,0.3,0.2,0.3c0,0,0,0,0,0h97.7"/>
	<path class="st1" d="M1283.6,291.6c-5.9,20.1-22.8,36.4-41.3,39.6c-2.6,0.4-5.2,0.6-7.9,0.7c-2.8,0-9.8,0-20.8,0"/>
	<path class="st1" d="M1126.2,130.5c23.7,0.1,47.4,0.1,71.1,0c9.6,0,18.8-0.2,28.2,3.5c24.6,9.7,38.8,38.1,34.1,66.9
		c-1.6,10.2-5.8,19.8-12.2,27.8c-7.4,8.9-15.8,15.1-26.4,17.7c-4,1-8.2,1.5-12.4,1.4c-18.5-0.1-37-0.1-55.5,0
		c-0.2,0-0.3-0.1-0.3-0.3v-31.7c0-0.3,0.1-0.4,0.3-0.4c19.5,0,39.2,0.2,58.8,0.1c0.6-0.1,1.2-0.2,1.7-0.3
		c6.7-1.7,11.8-5.8,15.3-12.3c6.8-12.5,2.4-28.2-8.1-36c-4.3-3.2-8.5-3.9-13.6-3.9c-17.7,0-35.5,0-53.3,0.1c-0.5,0-1,0.2-1.3,0.6
		c-4.3,5.3-8.5,10.8-12.6,16.3c-7.7,10.3-15.4,20.7-23,31.2l-1.2,1.6c0,0.1-0.1,0.1-0.2,0c0,0,0,0,0,0c0,0-0.1-0.1-0.1-0.2v-81.7
		c0-0.2,0.1-0.2,0.2-0.2L1126.2,130.5z"/>
	<path class="st1" d="M1283.6,291.6c-5.9,20.1-22.8,36.4-41.3,39.6c-2.6,0.4-5.2,0.6-7.9,0.7c-2.8,0-9.8,0-20.8,0h-97.7
		c-0.1,0-0.2-0.1-0.2-0.3c0,0,0,0,0,0l0.1-32.2c0-0.2,0.1-0.4,0.2-0.5l13.5-18.7c7.7-10.3,15.3-20.6,22.7-31.1
		c0.2-0.3,0.3-0.2,0.3,0.1l-0.1,49.8c0,0.1,0.1,0.3,0.2,0.3c0,0,0,0,0.1,0c25.9,0,51.9,0,77.9,0c4.8,0,8.6,0.1,12.7-2.1
		c8.3-4.5,13.7-12.9,14.4-22.3c1.1-16-10-27.8-23.5-29.6c-0.2,0-0.3-0.1-0.1-0.3c6.6-4.9,12.4-9.8,17.5-16.8c1.8-2.4,3.3-5,4.5-7.8
		c0.1-0.2,0.3-0.3,0.5-0.2c0,0,0,0,0,0c10.7,6.2,19.1,15.6,24,26.9C1286.7,261.2,1287.8,276.9,1283.6,291.6z"/>
</g>
</svg>
