<?xml version="1.0" encoding="utf-8"?>
<!-- Generator: Adobe Illustrator 25.2.1, SVG Export Plug-In . SVG Version: 6.00 Build 0)  -->
<svg version="1.1" id="Camada_1" xmlns="http://www.w3.org/2000/svg" xmlns:xlink="http://www.w3.org/1999/xlink" x="0px" y="0px"
	 viewBox="0 0 1024 1024" style="enable-background:new 0 0 1024 1024;" xml:space="preserve">
<style type="text/css">
	.st0{fill:#FBFBFB;}
</style>
<g>
	<path class="st0" d="M213,91.8c100.9,0.5,202.2,0,303.1,0c40.8,0,80.2-1.1,120.5,14.3c104.8,39.8,165.8,156.1,145.6,274
		c-7.4,43-25.1,81.3-52.1,113.7c-31.5,36.6-67.4,61.6-112.7,72.2c-16.7,4.2-34.4,5.8-52.6,5.8c-78.7-0.5-157.9-0.5-237.1,0
		c-1,0-1-0.5-1-1.1V441.2c0-1.1,0.5-1.6,1.5-1.6c83.1,0,167.3,1.1,250.9,0.5c1,0,3.9-0.5,7.4-1.6c28.5-6.9,50.2-23.9,65.4-50.5
		c29-51.5,10.3-115.8-34.4-147.1c-18.7-13.3-35.9-15.9-58.1-15.9c-75.8,0-151.5,0-227.3,0.5c-2.5,0-3.9,1.1-5.4,2.7
		c-18.2,21.8-36.4,44.1-53.6,66.9c-33,42.5-65.4,85-98.4,127.5c-2,2.1-3.4,4.2-4.9,6.4c-0.5,0.5-1,0.5-1,0l-0.5-0.5V93.9
		c0-0.5,0.5-1.1,1-1.1L213,91.8z"/>
	<path class="st0" d="M887.5,747.1c-25.1,82.3-97.4,148.7-176.6,162c-10.3,1.6-24.6,2.7-33.5,2.7c-12.3,0-41.8,0-89,0H171.2
		c-0.5,0-1-0.5-1-1.1l0.5-131.7c0-1.1,0.5-1.6,1-2.1l57.6-77c33-42,65.4-84.4,96.9-127.5c1-1.1,1-1.1,1,0.5l-0.5,203.9
		c0,1.1,0.5,1.1,1,1.1c110.7,0,221.4,0,332.6,0c20.2,0,36.4,0.5,54.1-8.5c33-17,58.5-51.5,61.5-91.3
		c4.4-65.9-42.8-114.2-100.4-121.1c-1,0-1-0.5-0.5-1.1c28-20.2,53.1-39.8,74.8-68.5c7.4-9.6,13.8-20.2,19.2-31.9
		c0.5-1.1,1.5-1.1,2.5-1.1c43.8,23.9,80.7,62.1,102.3,109.9C901.3,623.9,905.2,684.4,887.5,747.1z"/>
</g>
</svg>
